<?xml version="1.0" standalone="no"?>
<!DOCTYPE svg PUBLIC "-//W3C//DTD SVG 20010904//EN"
 "http://www.w3.org/TR/2001/REC-SVG-20010904/DTD/svg10.dtd">
<svg version="1.0" xmlns="http://www.w3.org/2000/svg"
 width="1280.000000pt" height="1280.000000pt" viewBox="0 0 1280.000000 1280.000000"
 preserveAspectRatio="xMidYMid meet">
<metadata>
Created by potrace 1.15, written by Peter Selinger 2001-2017
</metadata>
<g transform="translate(0.000000,1280.000000) scale(0.100000,-0.100000)"
fill="#000000" stroke="none">
<path d="M4875 9620 l-1190 -5 -60 -24 c-43 -17 -55 -26 -42 -30 29 -11 -48
-78 -110 -96 -76 -22 -132 -98 -172 -229 -20 -64 -28 -146 -15 -146 3 0 32 7
63 15 51 13 768 61 793 53 10 -4 -382 -61 -681 -100 -119 -15 -175 -26 -178
-35 -3 -8 -4 -15 -2 -17 2 -2 93 9 201 25 226 32 696 70 653 54 -11 -5 -823
-115 -843 -115 -7 0 -12 -7 -12 -15 0 -8 6 -15 13 -15 8 0 7 -3 -3 -10 -8 -5
-11 -12 -7 -16 4 -4 202 21 440 55 565 80 524 76 458 51 -31 -11 -149 -32
-278 -49 -123 -17 -313 -44 -423 -62 l-200 -32 0 -59 0 -60 38 6 c81 13 351
45 422 50 70 5 -261 -44 -397 -59 -46 -5 -63 -11 -63 -22 0 -11 7 -13 28 -9
15 3 99 14 187 26 88 11 281 36 429 55 148 20 270 34 272 32 3 -3 -507 -93
-813 -143 l-103 -17 0 -68 c0 -56 3 -68 18 -72 16 -4 16 -5 0 -6 -15 -1 -18
-11 -18 -61 l0 -60 33 -1 32 -1 -32 -9 c-18 -5 -33 -15 -33 -22 0 -11 15 -12
67 -5 89 10 92 3 4 -12 -52 -9 -71 -16 -71 -27 0 -13 9 -14 48 -10 178 23
1184 119 1189 113 5 -5 -70 -16 -688 -98 l-547 -72 0 -43 c-1 -24 2 -43 6 -43
4 0 63 7 132 15 69 8 166 20 215 25 173 20 431 50 598 71 92 11 172 19 178 17
17 -6 -605 -95 -861 -123 -257 -29 -270 -31 -270 -47 0 -7 18 -9 58 -4 31 4
95 11 142 17 47 5 101 12 120 14 74 11 -8 -12 -162 -46 -110 -24 -158 -38
-158 -48 0 -9 7 -11 23 -8 12 4 155 35 317 71 291 64 447 92 471 84 11 -4
-130 -38 -601 -148 -138 -32 -206 -52 -208 -61 -2 -11 59 -4 280 33 156 26
294 47 308 47 14 0 -111 -31 -277 -68 -167 -37 -306 -70 -310 -74 -3 -4 -4
-10 0 -13 3 -3 232 44 509 105 277 61 546 119 599 130 113 23 143 28 1004 166
363 58 723 116 800 130 232 40 433 71 1595 241 454 66 519 76 730 114 306 55
651 92 923 99 154 4 247 10 247 16 0 15 -189 18 -384 6 -94 -6 -171 -9 -173
-7 -12 11 292 56 420 62 138 6 147 7 147 26 0 19 -4 19 -62 13 -53 -6 -61 -5
-50 6 7 8 34 19 60 24 41 9 47 14 44 35 -1 13 -4 25 -5 26 -1 2 -24 -2 -50 -8
-45 -9 -50 -8 -64 12 -16 22 -19 22 -132 14 -64 -5 -138 -8 -166 -6 -27 1 -97
-5 -155 -13 -58 -8 -139 -17 -180 -20 -204 -15 -423 -36 -470 -45 -92 -17 -65
-4 67 33 274 77 308 82 938 137 170 15 195 19 189 35 -4 9 -24 12 -72 9 -62
-3 -64 -3 -27 7 22 5 50 12 63 15 19 4 21 8 12 24 -10 18 -22 20 -148 21
l-137 1 113 30 c69 19 111 35 109 42 -3 6 -9 10 -15 9 -5 -1 -89 -23 -186 -48
-152 -39 -272 -58 -254 -40 3 4 93 26 199 50 107 25 205 47 218 50 22 6 23 7
8 23 -15 15 -41 11 -349 -56 -183 -40 -353 -72 -378 -72 -38 0 -16 10 150 65
163 55 220 69 350 87 85 12 157 23 159 25 3 2 0 7 -5 12 -5 5 -35 5 -69 1 -74
-11 -81 -6 -18 12 l48 14 -40 21 c-103 54 -93 53 -864 53 -402 0 -731 -4 -751
-9 -19 -5 -60 -12 -90 -15 l-55 -5 45 10 c82 19 89 29 15 23 -38 -3 -117 -19
-174 -36 -61 -17 -204 -44 -350 -64 -135 -19 -306 -44 -380 -54 -140 -21 -175
-21 -94 -1 70 18 772 141 808 142 16 0 38 3 47 7 20 8 -1024 9 -2677 2z m1183
-15 c-13 -14 -197 -40 -873 -125 -308 -39 -645 -84 -749 -100 -104 -17 -191
-28 -193 -27 -17 17 826 170 1109 202 377 42 723 67 706 50z m821 1 c-2 -2
-46 -20 -98 -40 -82 -32 -286 -75 -298 -63 -4 5 117 59 171 77 46 15 237 37
225 26z m191 -5 c-19 -11 -139 -37 -205 -45 -72 -8 -25 11 85 34 94 21 145 25
120 11z m2075 -10 c88 -4 149 -10 135 -14 -14 -3 -178 -29 -365 -57 -187 -28
-487 -73 -668 -100 -180 -28 -331 -50 -335 -50 -4 1 5 11 19 23 15 12 52 44
83 71 l56 48 163 24 c89 13 198 30 242 39 104 22 295 34 415 28 52 -3 167 -9
255 -12z m-2550 0 c-6 -5 -60 -32 -122 -60 l-112 -50 -308 -46 c-169 -25 -384
-57 -478 -70 -93 -14 -240 -36 -325 -49 -85 -13 -156 -22 -158 -20 -5 4 346
118 503 163 77 23 214 52 305 66 91 14 233 36 315 49 152 24 399 35 380 17z
m-2910 -37 c-53 -40 -99 -61 -93 -42 6 18 98 78 120 78 14 0 7 -9 -27 -36z
m145 31 c0 -6 -33 -19 -75 -29 -37 -9 -25 5 18 21 35 13 57 16 57 8z m1457 -5
c-30 -9 -188 -23 -172 -15 17 8 118 23 160 23 36 0 38 0 12 -8z m-1342 -6
c-29 -12 -280 -84 -289 -83 -20 2 248 87 274 87 14 0 21 -1 15 -4z m139 -36
c-93 -15 -173 -26 -178 -25 -16 5 227 57 279 59 101 6 65 -6 -101 -34z m366
26 c-36 -7 -90 -15 -120 -18 -35 -3 -21 1 40 13 52 10 106 19 120 19 14 0 -4
-6 -40 -14z m519 12 c-11 -12 -187 -49 -288 -62 -196 -24 -176 -14 49 26 224
39 246 43 239 36z m3088 -12 c-3 -3 -12 -4 -19 -1 -8 3 -5 6 6 6 11 1 17 -2
13 -5z m-270 -10 c-3 -3 -12 -4 -19 -1 -8 3 -5 6 6 6 11 1 17 -2 13 -5z m188
-8 c-66 -17 -141 -28 -134 -22 8 8 130 34 159 34 14 0 3 -6 -25 -12z m-247 -3
c-10 -2 -26 -2 -35 0 -10 3 -2 5 17 5 19 0 27 -2 18 -5z m-3471 -9 c-3 -3 -12
-4 -19 -1 -8 3 -5 6 6 6 11 1 17 -2 13 -5z m3308 -15 c-60 -10 -117 -17 -125
-16 -19 4 164 35 205 35 17 0 -19 -9 -80 -19z m1654 17 c-2 -2 -96 -25 -209
-50 -134 -30 -322 -61 -545 -91 -187 -25 -405 -54 -484 -65 -79 -11 -146 -18
-149 -16 -13 14 94 33 683 121 352 53 645 97 650 100 14 5 59 6 54 1z m-1249
-51 c-20 -24 -184 -131 -211 -138 -13 -3 -118 -19 -234 -36 -199 -29 -455 -45
-455 -28 0 4 8 7 18 7 10 0 164 36 342 81 178 44 373 91 434 104 61 13 113 24
115 24 2 1 -2 -6 -9 -14z m-3451 -19 c-7 -6 -720 -158 -724 -154 -2 2 75 30
171 62 156 52 192 60 337 76 170 19 223 23 216 16z m794 -3 c-7 -2 -21 -2 -30
0 -10 3 -4 5 12 5 17 0 24 -2 18 -5z m-238 -34 c-539 -84 -1048 -159 -1051
-156 -5 5 166 40 316 67 63 11 266 40 450 64 184 25 349 47 365 49 17 2 48 4
70 4 22 1 -45 -12 -150 -28z m135 -65 c-381 -126 -492 -144 -1110 -179 -239
-13 -464 -27 -500 -30 -35 -3 -62 -3 -58 0 14 15 129 38 353 70 132 20 533 80
890 134 358 55 664 99 680 100 17 0 -98 -42 -255 -95z m1209 92 c-2 -2 -20 -6
-39 -10 -25 -4 -31 -3 -20 4 14 9 69 15 59 6z m960 -1 c-3 -2 -70 -18 -149
-35 -80 -17 -154 -33 -165 -35 -11 -3 0 5 25 17 56 27 309 74 289 53z m-3566
-12 c-7 -2 -19 -2 -25 0 -7 3 -2 5 12 5 14 0 19 -2 13 -5z m-128 -24 c-99 -20
-132 -23 -121 -11 9 9 130 30 176 30 20 0 -4 -8 -55 -19z m2562 10 c-32 -18
-693 -133 -967 -168 -180 -23 -392 -36 -345 -21 17 6 248 42 515 81 267 39
550 81 630 94 80 13 154 23 165 24 19 0 19 0 2 -10z m2603 -46 l-165 -56 -150
-3 -150 -3 200 44 c186 41 363 73 410 73 11 0 -54 -25 -145 -55z m-1955 36
c-36 -10 -658 -109 -683 -108 -9 0 14 11 52 25 78 27 508 91 621 92 39 0 39 0
10 -9z m-3370 -19 c-3 -5 -16 -10 -28 -10 -18 0 -19 2 -7 10 20 13 43 13 35 0z
m375 -21 c-122 -43 -398 -125 -445 -133 l-40 -7 35 34 c33 32 47 37 245 80
258 57 246 55 270 55 11 0 -18 -13 -65 -29z m3065 0 c-79 -38 -305 -89 -427
-98 -54 -3 -98 -3 -98 0 0 11 515 126 575 127 6 0 -17 -13 -50 -29z m1365 -39
c-94 -20 -239 -36 -228 -25 7 7 237 42 283 43 17 0 -8 -8 -55 -18z m-1890 -24
c0 -8 -105 -34 -157 -39 -87 -7 -60 8 45 25 53 8 100 16 105 17 4 0 7 -1 7 -3z
m570 -13 c-25 -8 -72 -16 -105 -19 -59 -4 -59 -3 25 15 102 22 142 25 80 4z
m765 7 c-3 -5 -11 -10 -16 -10 -6 0 -7 5 -4 10 3 6 11 10 16 10 6 0 7 -4 4
-10z m1785 1 c-24 -13 -177 -38 -440 -71 -135 -17 -252 -33 -260 -35 -31 -9
-563 -65 -568 -60 -3 3 0 5 7 5 41 0 684 105 776 127 83 20 150 28 275 33 91
3 179 7 195 8 21 1 25 -1 15 -7z m-500 -11 c-17 -9 -390 -73 -396 -67 -4 4
272 65 321 70 63 8 91 7 75 -3z m-5245 -36 c-113 -32 -335 -77 -343 -69 -5 5
55 21 248 65 206 47 253 49 95 4z m4725 27 c-8 -5 -79 -25 -156 -44 -114 -29
-202 -42 -449 -67 -169 -17 -309 -29 -312 -27 -2 3 36 19 84 37 113 41 412 91
593 100 214 10 257 10 240 1z m145 0 c-11 -5 -38 -11 -60 -14 l-40 -6 40 14
c22 7 49 14 60 14 l20 0 -20 -8z m-5290 -30 c-17 -17 -43 -33 -60 -37 l-30 -7
20 23 c19 21 68 49 90 50 5 0 -4 -13 -20 -29z m4612 23 c-12 -12 -197 -32
-224 -25 l-28 8 25 7 c43 10 237 19 227 10z m-1802 -40 c-5 -2 -75 -24 -155
-49 -156 -49 -309 -83 -521 -116 -133 -20 -379 -39 -379 -29 0 9 266 76 410
105 69 13 148 31 175 40 103 33 239 53 360 53 66 0 116 -1 110 -4z m100 -20
c-137 -29 -160 -29 -70 1 39 13 94 23 125 23 51 0 48 -2 -55 -24z m350 17 c-6
-5 -37 -12 -70 -15 l-60 -5 60 13 c79 18 81 18 70 7z m430 4 c-22 -8 -296 -46
-307 -43 -31 11 143 46 227 46 50 0 86 -1 80 -3z m142 -11 c-3 -3 -12 -4 -19
-1 -8 3 -5 6 6 6 11 1 17 -2 13 -5z m-1842 -15 c-42 -13 -344 -51 -358 -45 -8
3 -6 5 3 6 8 0 87 11 175 24 88 13 171 24 185 24 23 0 23 0 -5 -9z m1778 4
c-7 -2 -19 -2 -25 0 -7 3 -2 5 12 5 14 0 19 -2 13 -5z m-646 -9 c-3 -3 -12 -4
-19 -1 -8 3 -5 6 6 6 11 1 17 -2 13 -5z m586 -1 c-7 -2 -21 -2 -30 0 -10 3 -4
5 12 5 17 0 24 -2 18 -5z m-438 -13 c-27 -12 -43 -12 -25 0 8 5 22 9 30 9 10
0 8 -3 -5 -9z m368 3 c-7 -2 -19 -2 -25 0 -7 3 -2 5 12 5 14 0 19 -2 13 -5z
m636 3 c-2 -2 -40 -19 -84 -36 -77 -31 -98 -34 -605 -85 -289 -30 -579 -61
-644 -70 -66 -8 -121 -13 -123 -11 -13 13 131 48 327 80 284 46 238 41 625 76
182 17 362 34 400 39 89 11 109 12 104 7z m-2810 -10 c-2 -2 -26 -6 -54 -10
-34 -4 -43 -3 -30 3 19 9 93 15 84 7z m2114 -3 c-7 -2 -19 -2 -25 0 -7 3 -2 5
12 5 14 0 19 -2 13 -5z m1370 0 c-7 -2 -19 -2 -25 0 -7 3 -2 5 12 5 14 0 19
-2 13 -5z m-3673 -12 c-42 -25 -164 -44 -360 -57 -238 -15 -255 -16 -249 -10
5 5 423 64 489 69 94 7 135 7 120 -2z m1835 -11 c-57 -27 -770 -130 -808 -117
-26 8 146 41 464 87 383 55 402 57 344 30z m1788 13 c-7 -2 -19 -2 -25 0 -7 3
-2 5 12 5 14 0 19 -2 13 -5z m-48 -9 c-21 -8 -427 -75 -437 -72 -13 5 376 75
417 76 17 0 26 -1 20 -4z m-3265 -41 c-107 -20 -676 -110 -678 -108 -2 2 32
14 75 28 104 34 229 57 398 72 138 12 254 17 205 8z m2640 -34 c-118 -21 -219
-38 -225 -38 -5 0 17 11 50 25 41 17 99 29 180 38 216 24 214 15 -5 -25z m969
37 c-2 -2 -116 -36 -254 -75 -165 -46 -327 -84 -475 -111 -209 -38 -1525 -231
-1560 -229 -8 0 32 13 90 28 58 16 157 44 220 64 109 34 276 72 600 137 80 16
321 52 535 80 215 29 480 65 590 80 196 27 263 34 254 26z m961 -21 c9 -11 9
-15 1 -15 -6 0 -121 -20 -254 -44 -133 -24 -267 -47 -297 -50 -49 -6 -39 -1
85 44 129 47 152 52 290 64 83 8 153 14 156 15 4 0 12 -6 19 -14z m-2161 -19
c-9 -9 -255 -84 -299 -91 -25 -4 -114 -20 -199 -36 -129 -25 -956 -120 -1032
-119 -13 0 36 25 110 55 128 52 142 55 335 80 173 23 996 111 1065 114 13 0
22 -1 20 -3z m394 -3 c-7 -2 -19 -2 -25 0 -7 3 -2 5 12 5 14 0 19 -2 13 -5z
m-60 -10 c-7 -2 -19 -2 -25 0 -7 3 -2 5 12 5 14 0 19 -2 13 -5z m1377 3 c0 -3
-50 -21 -111 -41 -165 -53 -311 -72 -918 -120 -36 -3 -61 -3 -56 -1 30 14 529
99 705 120 113 14 237 30 275 34 90 12 105 13 105 8z m-4120 -28 c-23 -9 -264
-39 -300 -37 -57 3 208 46 290 47 33 1 34 0 10 -10z m1150 -57 c-41 -17 -428
-76 -437 -67 -2 2 38 11 89 20 51 9 152 27 223 40 158 29 184 31 125 7z
m-1757 -8 c-7 -2 -19 -2 -25 0 -7 3 -2 5 12 5 14 0 19 -2 13 -5z m407 3 c0
-11 -165 -38 -420 -71 -151 -19 -378 -48 -505 -65 -426 -55 -334 -34 275 64
359 58 650 90 650 72z m209 -20 c-2 -2 -62 -13 -134 -25 -200 -33 -203 -33
-182 -21 26 17 332 61 316 46z m4146 -12 c-69 -27 -916 -156 -931 -141 -2 2
53 14 124 26 70 13 222 41 337 63 116 22 244 43 285 48 81 8 201 11 185 4z
m-3205 -48 c-178 -74 -225 -84 -522 -116 -157 -16 -494 -61 -748 -100 -254
-39 -464 -69 -467 -67 -6 6 1 8 427 91 508 99 560 108 935 160 176 25 331 47
345 49 14 2 39 5 55 5 25 1 21 -3 -25 -22z m-477 7 c-7 -2 -21 -2 -30 0 -10 3
-4 5 12 5 17 0 24 -2 18 -5z m-58 -8 c-22 -9 -307 -56 -311 -52 -7 7 39 17
161 37 102 17 173 24 150 15z m-1706 -29 c-7 -7 -195 -36 -221 -35 -13 1 22
10 77 19 101 18 152 24 144 16z m2746 -11 c-5 -2 -194 -36 -420 -74 -367 -63
-576 -92 -639 -90 -18 0 111 36 304 84 94 23 804 98 755 80z m1102 -11 c-3 -3
-12 -4 -19 -1 -8 3 -5 6 6 6 11 1 17 -2 13 -5z m536 -1 c-7 -2 -19 -2 -25 0
-7 3 -2 5 12 5 14 0 19 -2 13 -5z m-3304 -7 c-6 -6 -811 -167 -815 -163 -2 2
57 23 131 46 105 34 191 52 383 81 237 36 310 45 301 36z m2730 0 c-13 -13
-1218 -181 -1241 -174 -12 4 1157 174 1211 177 19 0 32 -1 30 -3z m-4 -82
c-297 -46 -547 -83 -555 -81 -30 5 453 88 710 121 146 19 276 37 290 39 14 2
41 4 60 5 19 0 -208 -38 -505 -84z m-4062 69 c-7 -2 -19 -2 -25 0 -7 3 -2 5
12 5 14 0 19 -2 13 -5z m1408 -19 c-44 -14 -125 -28 -106 -19 18 8 120 34 135
33 8 0 -5 -6 -29 -14z m3262 9 c-7 -2 -21 -2 -30 0 -10 3 -4 5 12 5 17 0 24
-2 18 -5z m-54 -7 c-17 -16 -1318 -212 -1356 -204 -15 3 1281 205 1331 207 16
0 27 -1 25 -3z m-2529 -45 c-20 -12 -289 -66 -420 -85 -121 -17 -605 -59 -621
-54 -25 8 904 139 1036 146 16 1 17 0 5 -7z m675 -51 c-193 -50 -293 -68 -618
-115 -214 -31 -393 -55 -398 -53 -6 2 43 14 108 26 65 13 240 49 388 82 154
33 322 64 390 70 66 6 165 20 220 29 170 31 149 21 -90 -39z m1750 25 c-214
-35 -445 -67 -456 -63 -12 4 267 51 401 67 104 13 142 10 55 -4z m-4085 -61
c-111 -36 -166 -48 -305 -64 -93 -11 -186 -22 -205 -25 -19 -2 -28 -1 -20 2
21 9 620 131 645 131 11 0 -41 -20 -115 -44z m2923 -1 c-7 -2 -19 -2 -25 0 -7
3 -2 5 12 5 14 0 19 -2 13 -5z m-48 -8 c-36 -13 -503 -92 -775 -130 -179 -25
-419 -59 -534 -75 -115 -17 -211 -28 -213 -26 -17 17 428 89 1257 205 182 26
294 37 265 26z m728 -2 c-7 -2 -19 -2 -25 0 -7 3 -2 5 12 5 14 0 19 -2 13 -5z
m-1894 -8 c-15 -14 -539 -113 -793 -150 -271 -39 -642 -73 -466 -43 30 5 240
41 465 79 447 77 808 129 794 114z m659 -2 c-10 -2 -26 -2 -35 0 -10 3 -2 5
17 5 19 0 27 -2 18 -5z m-1045 -10 c-7 -2 -21 -2 -30 0 -10 3 -4 5 12 5 17 0
24 -2 18 -5z m970 0 c-7 -2 -19 -2 -25 0 -7 3 -2 5 12 5 14 0 19 -2 13 -5z
m-1034 -7 c-2 -2 -47 -6 -99 -8 -54 -3 -75 -2 -50 2 50 8 156 12 149 6z m948
-2 c-3 -3 -12 -4 -19 -1 -8 3 -5 6 6 6 11 1 17 -2 13 -5z m-2197 -40 c-52 -13
-142 -31 -200 -39 -204 -29 -181 -11 36 29 184 33 184 33 224 34 22 0 1 -9
-60 -24z m993 19 c-7 -2 -19 -2 -25 0 -7 3 -2 5 12 5 14 0 19 -2 13 -5z m1800
-20 c-7 -2 -19 -2 -25 0 -7 3 -2 5 12 5 14 0 19 -2 13 -5z m-65 -10 c-10 -2
-26 -2 -35 0 -10 3 -2 5 17 5 19 0 27 -2 18 -5z m92 -24 c-339 -64 -1083 -167
-1128 -156 -26 5 79 22 673 106 587 84 704 97 455 50z m-1875 16 c-25 -10
-364 -65 -755 -125 -176 -26 -480 -45 -480 -30 0 3 59 22 131 43 117 35 155
41 362 58 128 11 329 28 447 38 206 18 316 24 295 16z m-1210 -117 c-92 -30
-184 -48 -250 -48 -100 0 -51 19 116 44 187 29 212 30 134 4z m1390 -49 c-101
-27 -839 -131 -915 -128 -14 0 166 29 400 64 234 35 450 68 480 73 92 16 109
11 35 -9z m434 -3 c-19 -18 -599 -104 -631 -94 -6 2 60 15 148 28 87 13 220
33 294 45 131 22 198 29 189 21z m-169 -87 c-129 -21 -242 -38 -250 -36 -20 3
194 46 310 62 201 27 164 11 -60 -26z m-787 -26 c-7 -2 -19 -2 -25 0 -7 3 -2
5 12 5 14 0 19 -2 13 -5z m227 -49 c-215 -48 -936 -172 -945 -162 -3 2 145 39
328 81 264 62 370 82 517 97 102 12 192 22 200 24 8 2 33 4 55 4 22 0 -47 -19
-155 -44z m-657 29 c-7 -2 -19 -2 -25 0 -7 3 -2 5 12 5 14 0 19 -2 13 -5z"/>
<path d="M9290 8839 c-720 -101 -788 -111 -900 -134 -115 -23 -115 -23 -53
-24 34 -1 92 5 130 13 37 8 284 44 548 80 446 61 569 79 653 92 17 3 32 9 32
14 0 15 -42 11 -410 -41z"/>
<path d="M9595 8829 c-38 -10 -216 -39 -395 -64 -386 -54 -582 -84 -589 -90
-13 -14 123 -1 383 36 158 22 290 38 293 36 2 -3 -29 -12 -69 -21 -40 -9 -175
-40 -300 -68 l-228 -53 0 -29 c0 -27 1 -28 38 -23 20 3 62 8 92 11 38 4 28 0
-34 -12 -54 -10 -91 -22 -94 -31 -3 -10 3 -12 24 -7 119 23 498 86 506 84 6
-2 -46 -21 -115 -42 -89 -26 -169 -42 -272 -54 l-145 -16 0 -44 c0 -37 3 -43
18 -38 30 9 796 89 940 98 50 3 56 21 10 29 l-33 6 35 4 c30 3 35 8 35 32 1
34 19 34 -285 -3 -134 -16 -245 -28 -247 -26 -1 1 73 26 165 55 108 33 203 56
267 64 l100 12 2 38 c0 20 -2 37 -5 37 -4 0 -41 -11 -82 -25 -68 -22 -732
-126 -793 -124 -12 0 88 27 223 58 135 32 306 74 380 94 74 19 160 38 190 42
78 9 90 14 90 36 0 23 -13 23 -105 -2z m-682 -256 c-7 -2 -19 -2 -25 0 -7 3
-2 5 12 5 14 0 19 -2 13 -5z m534 -29 c-3 -3 -12 -4 -19 -1 -8 3 -5 6 6 6 11
1 17 -2 13 -5z m-77 -11 c-90 -16 -279 -38 -273 -32 9 9 208 36 263 36 25 0
28 -1 10 -4z"/>
<path d="M6960 8430 c-184 -38 -445 -91 -580 -119 -214 -44 -1479 -247 -1785
-286 -324 -42 -1142 -114 -1302 -115 -7 0 -13 -9 -13 -20 0 -12 7 -20 18 -20
43 0 592 51 1232 116 105 10 3 -9 -345 -65 -313 -51 -861 -131 -895 -131 -5 0
-10 -22 -10 -50 0 -59 -13 -56 165 -36 183 21 160 12 -72 -30 -75 -13 -93 -20
-93 -34 0 -15 6 -16 73 -4 39 7 182 29 317 48 135 19 414 60 620 90 206 30
485 69 620 86 135 18 369 52 520 76 364 59 1222 185 1226 181 5 -5 -473 -143
-541 -157 -27 -5 -230 -33 -450 -60 -705 -89 -1007 -133 -1345 -199 -113 -22
-383 -69 -600 -105 -217 -37 -405 -68 -417 -71 -27 -6 -30 -32 -5 -38 16 -4
16 -5 0 -6 -12 -1 -18 -9 -18 -26 0 -24 2 -25 78 -26 l77 -2 -77 -14 c-65 -13
-78 -18 -78 -34 0 -10 6 -19 13 -19 6 0 111 14 232 31 161 23 268 32 400 34
201 4 197 3 -155 -40 -320 -40 -483 -68 -488 -84 -4 -11 2 -13 25 -8 140 28
942 128 1010 126 19 0 4 -8 -47 -25 -79 -25 -457 -80 -745 -108 -254 -25 -245
-23 -245 -52 0 -23 3 -25 28 -20 141 29 580 87 642 85 14 0 -49 -25 -140 -55
-138 -45 -188 -57 -305 -70 -222 -24 -225 -25 -225 -35 0 -5 17 -10 38 -10
l37 -2 -35 -6 c-40 -7 -57 -41 -21 -41 12 0 21 -4 21 -10 0 -5 -9 -10 -20 -10
-11 0 -20 -6 -20 -14 0 -11 15 -13 68 -10 48 2 59 1 37 -5 -16 -5 -47 -9 -67
-10 -32 -1 -38 -5 -38 -22 0 -20 3 -21 73 -14 39 3 99 11 132 15 78 12 261 24
255 17 -3 -3 -93 -19 -200 -36 -107 -17 -210 -34 -227 -37 -33 -5 -33 -6 -33
-59 l0 -54 30 4 c17 3 44 7 60 10 51 8 25 -11 -35 -25 -53 -13 -55 -14 -55
-47 0 -38 -6 -37 120 -18 52 8 104 14 115 14 l20 0 -20 -8 c-11 -5 -58 -14
-105 -20 -138 -20 -130 -16 -130 -61 0 -22 1 -40 3 -40 2 0 54 7 117 15 62 8
115 13 117 11 5 -4 -58 -24 -172 -54 -51 -13 -65 -21 -65 -36 0 -16 5 -17 33
-12 38 8 376 36 427 35 31 -1 -67 -21 -366 -74 -88 -16 -94 -19 -94 -41 0 -28
3 -28 116 -14 197 25 1097 120 1101 117 9 -10 -824 -144 -1074 -173 -126 -15
-143 -19 -143 -36 0 -23 6 -22 148 2 131 22 426 60 457 59 49 -2 -421 -109
-547 -124 l-58 -7 0 -40 0 -39 43 6 c23 3 168 17 322 30 154 14 296 28 315 30
29 4 31 4 13 -4 -27 -12 -495 -105 -610 -122 -76 -10 -83 -13 -83 -33 l0 -23
338 43 c494 64 491 60 -23 -27 -165 -28 -304 -55 -309 -60 -21 -19 6 -19 115
0 378 66 500 86 832 136 203 30 376 55 385 54 52 -2 -559 -129 -738 -154 -113
-15 -564 -65 -588 -65 -7 0 -12 -14 -12 -31 l0 -32 48 6 c66 8 1216 166 1266
173 22 4 39 4 36 2 -3 -3 -165 -50 -360 -104 -394 -108 -382 -106 -782 -120
-170 -6 -208 -10 -208 -21 0 -12 19 -13 113 -9 296 15 372 17 367 12 -5 -5
-252 -67 -402 -102 l-78 -18 0 -33 c0 -38 -3 -37 74 -22 32 6 60 8 63 6 2 -3
-28 -11 -66 -18 l-71 -12 0 -39 c0 -21 1 -38 3 -38 13 0 2002 286 2122 305
472 74 540 86 548 94 5 5 5 11 0 13 -4 3 -143 -17 -308 -44 -426 -68 -1197
-179 -1215 -174 -12 3 -12 4 1 5 69 5 744 115 1091 178 310 57 428 82 428 91
0 10 -8 12 -27 8 -346 -72 -2394 -404 -2425 -394 -51 17 1575 293 2256 383
105 14 195 30 200 36 8 9 -8 10 -64 6 -63 -4 -68 -4 -30 4 25 5 55 12 68 15
22 4 32 34 11 34 -5 0 -128 -22 -272 -50 -277 -52 -493 -89 -667 -114 -137
-20 -393 -47 -398 -41 -5 4 -27 -1 488 129 228 57 514 127 635 154 201 45 220
51 223 71 3 18 0 21 -20 17 -39 -9 -386 -56 -405 -55 -10 0 -2 5 17 10 122 33
266 75 333 95 l77 25 0 44 c0 25 -3 45 -6 45 -3 0 -32 -6 -63 -14 -54 -13
-201 -30 -201 -23 0 2 61 19 135 38 l135 33 0 33 c0 18 -4 33 -8 33 -4 0 -203
-27 -442 -60 -440 -60 -539 -76 -800 -129 -135 -27 -457 -67 -481 -59 -11 4
380 72 1195 208 291 49 534 94 539 99 6 6 36 11 67 11 30 0 109 9 175 20 66
10 193 27 283 36 159 17 162 18 162 41 0 19 -4 22 -22 18 -48 -10 -210 -35
-358 -55 -85 -11 -258 -38 -383 -60 -125 -22 -235 -40 -245 -39 -9 0 66 24
168 54 171 49 208 55 490 89 168 20 315 39 328 41 20 5 22 11 22 71 0 57 -2
65 -17 60 -71 -20 -223 -42 -223 -32 0 2 54 14 120 26 79 14 120 26 120 35 0
10 -21 9 -97 -5 -434 -80 -496 -88 -813 -105 -136 -7 458 90 700 115 112 12
205 22 206 23 1 1 4 26 8 55 l7 52 -33 0 c-18 0 -60 -4 -93 -10 -33 -5 -271
-37 -530 -70 -258 -33 -557 -72 -664 -86 -106 -14 -198 -23 -203 -22 -16 6
958 146 1250 180 208 25 272 36 272 46 0 10 -10 12 -37 8 -21 -3 -121 -15
-223 -27 -102 -11 -342 -43 -535 -71 -192 -27 -368 -52 -390 -54 -38 -4 -38
-3 -10 6 55 18 317 59 1000 156 99 15 186 28 193 30 6 2 12 17 12 34 l0 31
-62 -5 -63 -5 59 12 c46 10 61 17 67 35 11 30 7 29 -239 -13 -111 -19 -208
-35 -215 -34 -19 2 151 37 312 64 80 14 147 27 149 29 7 7 15 86 9 86 -4 0
-147 -18 -319 -40 -295 -38 -452 -55 -418 -45 8 2 177 25 375 51 198 25 363
49 366 52 4 4 9 24 12 45 l6 39 -71 -7 c-39 -4 -89 -6 -112 -4 -23 2 -95 3
-160 3 -104 0 -116 2 -90 12 16 7 110 22 209 34 219 26 245 30 245 40 0 5 -12
11 -27 13 l-28 4 28 2 c22 1 31 9 43 37 8 20 14 37 12 39 -2 1 -115 -12 -253
-31 -137 -19 -254 -32 -259 -31 -5 2 116 39 269 83 170 48 280 85 283 93 3 10
-2 12 -19 9 -262 -58 -532 -105 -962 -168 -255 -37 -329 -45 -302 -34 6 2 302
64 660 138 516 107 652 138 663 153 12 16 11 18 -10 21 -22 4 -326 -13 -448
-25 -36 -3 -63 -3 -60 0 3 2 126 20 273 38 l268 32 21 30 22 30 -31 -6 c-83
-16 -497 -78 -509 -75 -8 2 120 41 284 87 224 64 302 90 317 107 49 54 96 119
87 122 -5 1 -121 -16 -258 -38 -137 -23 -307 -49 -379 -60 -156 -23 -616 -73
-621 -67 -2 2 47 11 109 20 316 46 881 131 1026 153 147 22 210 38 199 50 -3
2 -216 -28 -474 -66 -258 -39 -476 -69 -484 -67 -8 1 91 20 220 41 570 91 786
129 804 142 28 20 18 19 -183 -16 -96 -17 -176 -28 -178 -26 -2 2 94 23 214
46 193 38 273 60 273 75 0 7 19 10 -350 -65z m-823 -206 c-3 -3 -12 -4 -19 -1
-8 3 -5 6 6 6 11 1 17 -2 13 -5z m587 -25 c-17 -5 -188 -31 -380 -58 -334 -48
-1251 -185 -1324 -197 -19 -4 -33 -4 -30 -1 7 7 86 21 735 127 270 45 587 92
705 105 118 13 231 26 250 28 61 7 76 5 44 -4z m49 -36 c-7 -2 -19 -2 -25 0
-7 3 -2 5 12 5 14 0 19 -2 13 -5z m-65 -10 c-10 -2 -26 -2 -35 0 -10 3 -2 5
17 5 19 0 27 -2 18 -5z m-128 -18 c-41 -8 -86 -13 -100 -13 -37 1 99 26 140
26 19 0 1 -6 -40 -13z m-1063 -1 c-3 -3 -12 -4 -19 -1 -8 3 -5 6 6 6 11 1 17
-2 13 -5z m-54 -11 c-7 -2 -21 -2 -30 0 -10 3 -4 5 12 5 17 0 24 -2 18 -5z
m974 -9 c-3 -3 -12 -4 -19 -1 -8 3 -5 6 6 6 11 1 17 -2 13 -5z m-662 -90
c-171 -35 -1006 -157 -1038 -152 -12 2 221 40 518 84 516 78 672 98 520 68z
m-762 -1 c-7 -2 -19 -2 -25 0 -7 3 -2 5 12 5 14 0 19 -2 13 -5z m-60 -10 c-7
-2 -21 -2 -30 0 -10 3 -4 5 12 5 17 0 24 -2 18 -5z m-56 -9 c-3 -3 -12 -4 -19
-1 -8 3 -5 6 6 6 11 1 17 -2 13 -5z m231 1 c-6 -7 -235 -45 -261 -44 -12 1 32
12 98 24 119 23 173 29 163 20z m-305 -52 c-7 -2 -19 -2 -25 0 -7 3 -2 5 12 5
14 0 19 -2 13 -5z m-60 -10 c-7 -2 -21 -2 -30 0 -10 3 -4 5 12 5 17 0 24 -2
18 -5z m-76 -9 c-3 -3 -12 -4 -19 -1 -8 3 -5 6 6 6 11 1 17 -2 13 -5z m-70
-10 c-3 -3 -12 -4 -19 -1 -8 3 -5 6 6 6 11 1 17 -2 13 -5z m1578 -49 c-220
-29 -418 -56 -440 -60 -71 -14 -33 2 98 39 127 36 182 43 562 69 197 13 124
-2 -220 -48z m-1585 14 c-73 -17 -364 -60 -394 -57 -17 2 61 17 174 34 207 32
288 40 220 23z m1210 -14 c0 -2 -30 -13 -67 -24 -247 -74 -368 -98 -1040 -211
l-713 -120 -192 2 -193 3 230 48 c196 41 658 118 1390 233 94 14 258 36 365
49 234 27 220 26 220 20z m597 -1 c-3 -3 -12 -4 -19 -1 -8 3 -5 6 6 6 11 1 17
-2 13 -5z m-42 -10 c-5 -2 -140 -30 -300 -63 -159 -33 -378 -78 -485 -100
-187 -39 -499 -86 -521 -79 -26 9 409 121 576 149 308 52 775 112 730 93z
m-2527 -91 c-10 -2 -28 -2 -40 0 -13 2 -5 4 17 4 22 1 32 -1 23 -4z m-80 -10
c-10 -2 -28 -2 -40 0 -13 2 -5 4 17 4 22 1 32 -1 23 -4z m2427 -69 c-172 -50
-219 -58 -525 -99 -184 -24 -396 -51 -470 -59 -266 -30 -562 -57 -566 -53 -2
2 35 16 83 30 57 18 147 34 267 47 389 43 955 120 1241 169 178 30 171 23 -30
-35z m-1026 -8 c-2 -2 -71 -24 -154 -50 -121 -37 -188 -51 -345 -71 -107 -14
-249 -27 -315 -30 -120 -5 -119 -4 225 55 190 33 392 68 450 79 104 19 147 24
139 17z m1214 -53 c-7 -2 -19 -2 -25 0 -7 3 -2 5 12 5 14 0 19 -2 13 -5z
m-203 -34 c-91 -16 -174 -28 -185 -27 -26 4 270 56 315 56 19 0 -39 -13 -130
-29z m-1605 -105 l-100 -33 -190 0 -190 1 170 24 c172 24 325 41 380 42 19 0
-8 -13 -70 -34z m1663 29 c-15 -2 -42 -2 -60 0 -18 2 -6 4 27 4 33 0 48 -2 33
-4z m-815 -20 c-7 -2 -21 -2 -30 0 -10 3 -4 5 12 5 17 0 24 -2 18 -5z m-320
-10 c-7 -2 -21 -2 -30 0 -10 3 -4 5 12 5 17 0 24 -2 18 -5z m232 -4 c-22 -4
-56 -7 -75 -7 -32 1 -31 2 10 8 25 4 59 7 75 7 25 1 23 -1 -10 -8z m-1605 -14
c-40 -9 -129 -14 -230 -13 -154 0 -162 1 -115 13 32 8 116 13 230 13 176 0
179 0 115 -13z m250 0 c-114 -18 -178 -18 -95 0 33 7 87 12 120 13 l60 0 -85
-13z m990 -1 c-47 -7 -114 -12 -150 -12 -62 1 -61 1 35 13 55 7 123 12 150 12
41 0 36 -2 -35 -13z m243 -1 c-7 -2 -21 -2 -30 0 -10 3 -4 5 12 5 17 0 24 -2
18 -5z m587 -27 c0 -6 -538 -96 -665 -110 -117 -14 116 45 310 78 171 29 355
46 355 32z m227 -2 c-3 -3 -12 -4 -19 -1 -8 3 -5 6 6 6 11 1 17 -2 13 -5z
m-54 -11 c-7 -2 -21 -2 -30 0 -10 3 -4 5 12 5 17 0 24 -2 18 -5z m-1383 -9
c-26 -7 -215 -32 -218 -29 -12 11 96 33 158 33 41 0 68 -2 60 -4z m1323 -1
c-7 -2 -21 -2 -30 0 -10 3 -4 5 12 5 17 0 24 -2 18 -5z m-54 -7 c-2 -2 -26 -6
-54 -9 -34 -4 -42 -3 -25 3 25 8 87 13 79 6z m-1024 -21 c-42 -16 -1015 -188
-1022 -181 -2 2 67 26 154 54 140 45 180 53 348 72 105 12 251 30 325 39 126
17 218 24 195 16z m1045 -36 c-25 -4 -58 -7 -75 -7 -25 1 -24 2 10 8 22 4 56
7 75 7 31 0 30 0 -10 -8z m-122 -16 c-10 -2 -28 -2 -40 0 -13 2 -5 4 17 4 22
1 32 -1 23 -4z m-80 -10 c-10 -2 -26 -2 -35 0 -10 3 -2 5 17 5 19 0 27 -2 18
-5z m-762 -24 c-54 -18 -330 -60 -380 -58 -11 0 65 15 169 33 105 19 199 36
210 39 52 13 53 3 1 -14z m634 6 c-41 -8 -84 -13 -95 -13 -33 1 97 26 135 26
20 0 2 -6 -40 -13z m303 8 c-7 -2 -21 -2 -30 0 -10 3 -4 5 12 5 17 0 24 -2 18
-5z m-168 -24 c-108 -18 -244 -33 -215 -23 26 8 264 42 295 42 17 0 -19 -9
-80 -19z m-446 -29 c-20 -12 -155 -33 -172 -27 -6 2 29 11 78 19 112 19 114
19 94 8z m198 -6 c-3 -3 -12 -4 -19 -1 -8 3 -5 6 6 6 11 1 17 -2 13 -5z m488
-10 c-133 -30 -356 -63 -455 -68 l-105 -5 200 34 c208 36 325 52 385 53 27 0
21 -3 -25 -14z m-1432 -11 c-7 -2 -19 -2 -25 0 -7 3 -2 5 12 5 14 0 19 -2 13
-5z m677 -48 c-81 -15 -116 -18 -109 -10 8 7 109 23 149 23 19 0 2 -6 -40 -13z
m-1187 -42 c-7 -2 -19 -2 -25 0 -7 3 -2 5 12 5 14 0 19 -2 13 -5z m244 1 c-3
-3 -12 -4 -19 -1 -8 3 -5 6 6 6 11 1 17 -2 13 -5z m618 -4 c-27 -12 -601 -93
-617 -87 -14 4 25 12 337 63 195 32 323 43 280 24z m-1040 -21 c-330 -47 -419
-58 -423 -54 -9 9 84 25 273 49 234 28 340 32 150 5z m96 -24 c-331 -51 -409
-60 -398 -49 8 8 591 91 647 92 19 0 -93 -19 -249 -43z m1428 29 c-48 -7 -196
-25 -331 -39 -357 -37 -370 -32 -60 20 160 27 224 33 337 33 l140 0 -86 -14z
m310 -18 c-7 -7 -370 -57 -382 -53 -7 2 51 13 128 25 77 12 151 23 165 25 36
6 94 8 89 3z m-406 -63 c-7 -2 -19 -2 -25 0 -7 3 -2 5 12 5 14 0 19 -2 13 -5z
m-300 -20 c-7 -2 -19 -2 -25 0 -7 3 -2 5 12 5 14 0 19 -2 13 -5z m-488 -12
c-10 -10 -205 -35 -212 -27 -2 2 33 9 79 15 110 15 132 18 138 20 2 0 0 -3 -5
-8z m355 -12 c-118 -24 -477 -85 -545 -93 l-50 -6 38 15 c22 8 91 21 155 30
65 8 189 28 277 44 179 32 272 39 125 10z m1077 5 c-3 -3 -12 -4 -19 -1 -8 3
-5 6 6 6 11 1 17 -2 13 -5z m236 -1 c-7 -2 -19 -2 -25 0 -7 3 -2 5 12 5 14 0
19 -2 13 -5z m-958 -19 c-83 -23 -1432 -221 -1441 -211 -10 10 190 43 716 118
311 45 601 87 645 94 106 17 142 17 80 -1z m663 9 c-10 -2 -28 -2 -40 0 -13 2
-5 4 17 4 22 1 32 -1 23 -4z m240 0 c-10 -2 -28 -2 -40 0 -13 2 -5 4 17 4 22
1 32 -1 23 -4z m-1991 -9 c-3 -3 -12 -4 -19 -1 -8 3 -5 6 6 6 11 1 17 -2 13
-5z m1673 0 c-33 -9 -1024 -143 -1028 -140 -8 9 117 28 476 76 208 27 406 54
442 59 65 9 138 12 110 5z m237 0 c-3 -3 -12 -4 -19 -1 -8 3 -5 6 6 6 11 1 17
-2 13 -5z m-1964 -11 c-7 -2 -21 -2 -30 0 -10 3 -4 5 12 5 17 0 24 -2 18 -5z
m-56 -9 c-3 -3 -12 -4 -19 -1 -8 3 -5 6 6 6 11 1 17 -2 13 -5z m-244 -34 c-23
-10 -165 -31 -191 -29 -17 2 170 37 198 37 8 1 5 -3 -7 -8z m1962 -6 c-42 -17
-458 -77 -618 -90 -221 -17 -285 -15 -132 5 55 7 233 30 395 51 264 34 384 46
355 34z m943 -11 c-10 -2 -26 -2 -35 0 -10 3 -2 5 17 5 19 0 27 -2 18 -5z
m-2558 -20 c-41 -13 -527 -74 -575 -72 -95 4 456 86 585 87 l35 0 -45 -15z
m2213 -10 c-13 -2 -33 -2 -45 0 -13 2 -3 4 22 4 25 0 35 -2 23 -4z m-83 -9
c-108 -27 -1062 -191 -1244 -214 -400 -50 -1428 -161 -1434 -155 -3 3 -1 5 5
5 6 0 167 25 359 55 500 79 515 82 769 110 504 56 737 88 1180 160 116 19 226
36 245 38 46 5 139 6 120 1z m275 -10 c-166 -24 -183 -25 -155 -13 31 13 129
26 195 26 40 0 31 -2 -40 -13z m-323 -35 c-33 -13 -207 -41 -229 -37 -17 3
190 44 232 46 18 1 17 0 -3 -9z m-1805 -5 c-3 -3 -12 -4 -19 -1 -8 3 -5 6 6 6
11 1 17 -2 13 -5z m1008 1 c-18 -7 -265 -45 -283 -44 -22 2 235 47 268 47 14
0 21 -1 15 -3z m-1235 -40 c-102 -19 -232 -36 -290 -39 -102 -5 -99 -5 70 19
96 13 213 31 260 39 47 8 99 14 115 14 17 0 -53 -15 -155 -33z m1435 30 c-22
-8 -326 -47 -331 -43 -7 8 234 45 291 46 28 0 46 -1 40 -3z m-1140 -15 c-16
-4 -43 -8 -60 -8 -29 1 -29 1 5 8 19 4 46 7 60 8 22 0 22 -1 -5 -8z m-102 -17
c-7 -2 -19 -2 -25 0 -7 3 -2 5 12 5 14 0 19 -2 13 -5z m527 1 c-35 -9 -743
-95 -752 -92 -30 10 311 69 457 78 88 6 167 12 175 14 20 5 139 5 120 0z
m1057 0 c-3 -3 -12 -4 -19 -1 -8 3 -5 6 6 6 11 1 17 -2 13 -5z m-854 -11 c-7
-2 -21 -2 -30 0 -10 3 -4 5 12 5 17 0 24 -2 18 -5z m-60 -10 c-7 -2 -21 -2
-30 0 -10 3 -4 5 12 5 17 0 24 -2 18 -5z m214 1 c-3 -3 -12 -4 -19 -1 -8 3 -5
6 6 6 11 1 17 -2 13 -5z m-280 -10 c-3 -3 -12 -4 -19 -1 -8 3 -5 6 6 6 11 1
17 -2 13 -5z m778 -54 c-55 -16 -174 -40 -265 -54 -185 -28 -860 -112 -960
-120 l-65 -5 70 14 c219 44 699 122 955 155 364 47 397 48 265 10z m-1750 4
c-18 -7 -379 -74 -382 -70 -6 6 162 47 252 60 88 14 150 18 130 10z m-415 -19
c-172 -22 -228 -26 -200 -14 29 12 158 26 240 26 45 0 37 -2 -40 -12z m859 11
c-10 -10 -334 -56 -424 -60 -81 -4 -55 1 140 28 244 34 292 39 284 32z m-536
-73 c-7 -2 -19 -2 -25 0 -7 3 -2 5 12 5 14 0 19 -2 13 -5z m1580 -10 c-7 -2
-19 -2 -25 0 -7 3 -2 5 12 5 14 0 19 -2 13 -5z m-233 -38 c-385 -66 -1435
-226 -1463 -224 -7 0 83 25 198 54 151 39 259 60 385 75 410 49 986 121 995
125 6 2 26 3 45 3 19 0 -53 -15 -160 -33z m461 -70 c-155 -41 -189 -46 -574
-85 -225 -22 -417 -40 -426 -38 -18 4 1086 165 1134 166 17 0 -44 -19 -134
-43z m-124 -71 c-3 -3 -12 -4 -19 -1 -8 3 -5 6 6 6 11 1 17 -2 13 -5z m343 1
c0 -18 -682 -187 -697 -172 -2 2 25 12 59 22 35 9 138 39 229 67 133 39 262
67 402 87 4 1 7 -1 7 -4z m-635 -36 c-22 -5 -256 -36 -520 -69 -264 -33 -549
-69 -633 -80 -144 -19 -228 -25 -177 -13 267 62 374 78 815 123 256 26 485 48
510 48 l45 0 -40 -9z m-618 -25 c-3 -3 -12 -4 -19 -1 -8 3 -5 6 6 6 11 1 17
-2 13 -5z m791 -10 c-16 -16 -513 -145 -611 -158 -418 -58 -526 -69 -397 -39
36 8 187 43 335 79 149 35 356 77 460 93 214 32 221 33 213 25z m-1205 -31
c-13 -2 -35 -2 -50 0 -16 2 -5 4 22 4 28 0 40 -2 28 -4z m-115 -10 c-10 -2
-28 -2 -40 0 -13 2 -5 4 17 4 22 1 32 -1 23 -4z m-90 -10 c-16 -2 -40 -2 -55
0 -16 2 -3 4 27 4 30 0 43 -2 28 -4z m-105 -10 c-13 -2 -35 -2 -50 0 -16 2 -5
4 22 4 28 0 40 -2 28 -4z m1766 -17 c-16 -15 -643 -150 -1194 -256 -198 -39
-373 -73 -390 -76 -16 -4 -27 -4 -24 0 3 3 185 56 405 116 336 93 427 114 579
136 99 14 270 38 380 53 199 29 252 35 244 27z m-1542 -82 c-3 -3 -12 -4 -19
-1 -8 3 -5 6 6 6 11 1 17 -2 13 -5z m-69 -11 c-10 -2 -26 -2 -35 0 -10 3 -2 5
17 5 19 0 27 -2 18 -5z m661 -147 c-12 -12 -294 -75 -359 -80 -41 -3 -70 -3
-64 -1 12 6 390 83 413 84 8 1 12 -1 10 -3z m-90 -90 c-5 -6 -315 -56 -337
-55 -37 2 128 40 208 48 110 11 134 12 129 7z m-536 -71 c-97 -25 -287 -61
-440 -85 -147 -22 -281 -43 -298 -47 -16 -3 -27 -3 -24 1 10 11 355 95 534
130 234 46 217 43 315 44 l85 0 -172 -43z m310 -72 c-7 -2 -19 -2 -25 0 -7 3
-2 5 12 5 14 0 19 -2 13 -5z"/>
<path d="M9520 8379 c-69 -11 -264 -37 -435 -59 -170 -22 -329 -42 -352 -45
-39 -6 -43 -9 -43 -35 l0 -29 58 4 57 4 -57 -11 c-38 -7 -58 -15 -58 -24 0
-10 7 -13 23 -9 50 11 724 115 742 114 34 -2 -481 -100 -682 -130 -58 -9 -83
-17 -83 -26 0 -10 9 -12 33 -9 173 28 538 95 732 134 228 46 240 49 243 71 4
27 35 28 -282 -9 -99 -11 -189 -20 -200 -18 -12 2 83 16 209 32 236 30 275 38
275 56 0 13 -31 11 -180 -11z m-337 -86 c-7 -2 -21 -2 -30 0 -10 3 -4 5 12 5
17 0 24 -2 18 -5z m324 1 c-3 -3 -12 -4 -19 -1 -8 3 -5 6 6 6 11 1 17 -2 13
-5z m-660 -70 c-3 -3 -12 -4 -19 -1 -8 3 -5 6 6 6 11 1 17 -2 13 -5z"/>
<path d="M9455 8145 c-170 -30 -210 -34 -386 -34 -264 -1 -379 -10 -379 -28 0
-10 8 -13 28 -9 39 7 378 19 372 13 -4 -5 -141 -28 -362 -63 -29 -4 -38 -10
-38 -25 0 -10 3 -19 8 -19 4 0 95 11 202 25 184 24 420 45 678 60 77 5 112 11
109 19 -2 7 -36 12 -85 14 -45 2 -82 7 -82 11 0 5 30 12 67 16 82 9 113 20
113 40 0 21 -21 19 -245 -20z m-110 -65 c4 -6 -12 -9 -42 -9 l-48 2 40 7 c22
4 41 8 42 9 1 0 5 -3 8 -9z"/>
<path d="M9315 8030 c-426 -45 -615 -67 -622 -74 -17 -17 22 -16 204 3 244 27
773 81 791 81 6 0 12 5 12 10 0 15 -90 11 -385 -20z"/>
<path d="M9460 7929 c-171 -26 -282 -38 -637 -70 l-133 -12 0 -59 0 -58 -192
6 c-191 6 -299 -1 -418 -27 -46 -10 -51 -13 -30 -19 19 -5 12 -8 -31 -12 -31
-4 -74 -16 -95 -28 l-39 -21 40 5 c22 3 72 8 110 11 46 3 28 -2 -52 -13 l-123
-18 -45 -44 c-49 -48 -99 -126 -111 -174 -6 -24 -4 -27 12 -23 58 18 155 35
619 107 428 67 960 152 1285 204 l75 12 1 132 2 132 -27 -1 c-14 -1 -109 -14
-211 -30z m-285 -155 c-213 -36 -556 -86 -561 -81 -3 3 311 57 586 100 14 2
45 4 70 5 26 0 -15 -10 -95 -24z m505 -8 c0 -6 -191 -28 -196 -23 -3 3 28 9
68 15 83 11 128 14 128 8z m-1205 -67 c-22 -4 -53 -7 -70 -7 -26 1 -24 2 10 8
22 4 54 7 70 7 25 1 23 -1 -10 -8z m-352 -6 c-7 -2 -21 -2 -30 0 -10 3 -4 5
12 5 17 0 24 -2 18 -5z m887 -38 c-180 -31 -326 -50 -290 -39 42 13 410 72
445 72 22 0 -48 -15 -155 -33z m-747 -92 c-7 -2 -19 -2 -25 0 -7 3 -2 5 12 5
14 0 19 -2 13 -5z m-178 -29 c-77 -14 -153 -23 -170 -22 -34 3 221 45 275 45
19 1 -28 -10 -105 -23z m-217 -31 c-10 -2 -26 -2 -35 0 -10 3 -2 5 17 5 19 0
27 -2 18 -5z m455 0 c-7 -2 -19 -2 -25 0 -7 3 -2 5 12 5 14 0 19 -2 13 -5z
m-66 -9 c-3 -3 -12 -4 -19 -1 -8 3 -5 6 6 6 11 1 17 -2 13 -5z"/>
<path d="M8825 7519 c-473 -87 -923 -168 -1000 -182 -111 -18 -141 -27 -143
-40 -2 -11 2 -15 10 -12 7 2 162 23 343 45 182 22 386 50 455 60 69 11 367 58
663 104 296 46 541 87 544 90 20 20 -38 15 -310 -28 -166 -26 -473 -74 -682
-107 -209 -33 -389 -58 -400 -57 -11 2 14 9 55 17 878 158 1324 241 1332 249
5 5 6 12 1 14 -4 2 -395 -67 -868 -153z m-552 -136 c-7 -2 -19 -2 -25 0 -7 3
-2 5 12 5 14 0 19 -2 13 -5z"/>
<path d="M9455 7509 c-366 -93 -430 -105 -795 -159 -190 -28 -403 -59 -475
-70 -175 -25 -310 -35 -302 -22 4 5 23 13 42 16 22 4 35 13 35 22 0 19 -42 14
-158 -17 -40 -10 -83 -19 -96 -19 -13 0 -27 -7 -30 -16 -8 -22 -8 -64 2 -64 4
0 63 9 132 19 69 11 168 22 220 26 52 4 97 11 100 15 4 7 405 69 545 85 43 5
-630 -163 -859 -214 -77 -17 -141 -32 -142 -34 -2 -1 -6 -22 -10 -46 -7 -44
-7 -44 19 -37 15 3 95 13 179 21 199 20 300 34 733 106 382 64 534 79 735 77
69 -1 103 -3 75 -5 -27 -2 -178 -19 -335 -39 -157 -19 -341 -41 -410 -50 -184
-22 -322 -42 -440 -64 -91 -17 -527 -80 -551 -80 -5 0 -8 -27 -8 -61 1 -45 5
-59 15 -55 20 8 513 68 525 64 6 -2 -110 -26 -256 -53 -147 -28 -272 -53 -278
-57 -40 -24 48 -12 415 57 349 66 603 103 616 90 5 -5 -36 -12 -208 -39 -85
-14 -216 -36 -290 -49 -74 -14 -226 -40 -337 -58 l-203 -32 0 -28 c0 -16 3
-29 8 -29 4 0 82 16 173 35 314 65 1499 253 1532 242 12 -4 -684 -174 -957
-234 -183 -40 -212 -49 -172 -51 28 -2 107 10 189 28 180 40 858 204 1087 264
l175 45 0 38 c0 34 -2 38 -25 36 -240 -18 -633 -66 -964 -119 -120 -19 -226
-33 -235 -32 -9 2 74 18 184 37 577 94 983 160 1010 163 24 2 30 8 32 30 l2
26 -115 7 c-204 13 -559 -7 -779 -44 -97 -16 -111 -16 -121 -3 -9 13 -26 13
-125 3 -63 -7 -132 -15 -154 -18 -22 -3 -38 -3 -35 0 6 6 654 140 1045 217
289 56 292 57 279 70 -12 12 -884 -161 -1463 -290 -101 -22 -189 -39 -195 -37
-17 7 -16 7 509 135 483 118 558 133 945 188 107 15 199 31 204 35 22 20 -10
20 -141 0 -195 -30 -201 -25 -25 18 142 35 186 52 165 63 -4 3 -111 -21 -238
-53z m-827 -354 c-5 -6 -469 -81 -553 -90 -40 -4 -55 -3 -46 3 23 17 165 42
366 67 203 24 241 28 233 20z m497 -30 c-5 -2 -131 -25 -280 -50 -148 -26
-358 -62 -465 -80 -190 -33 -578 -80 -587 -72 -7 8 417 85 607 111 102 14 268
37 370 50 102 14 212 29 245 34 61 10 128 13 110 7z m15 -110 c-117 -24 -191
-34 -255 -33 -89 0 -89 0 -35 10 104 17 395 56 425 56 17 0 -44 -15 -135 -33z"/>
<path d="M9365 6839 c-257 -82 -341 -105 -492 -131 l-183 -32 0 -38 c0 -21 2
-38 4 -38 1 0 72 22 157 49 122 39 221 60 479 105 395 69 370 63 370 81 0 8
-2 15 -5 15 -2 0 -92 -16 -200 -36 -108 -19 -201 -34 -206 -32 -6 2 83 33 197
69 114 36 210 71 212 77 2 7 -2 12 -10 12 -7 -1 -152 -46 -323 -101z"/>
<path d="M6525 6729 c-49 -11 -94 -21 -100 -23 -5 -3 41 -5 103 -5 l112 -1 0
25 c0 29 3 29 -115 4z"/>
<path d="M9679 6715 c-3 -3 -107 -21 -230 -40 -317 -50 -447 -73 -583 -101
-65 -13 -132 -24 -147 -24 -23 0 -29 -5 -29 -21 0 -17 4 -20 24 -15 64 16 336
43 325 32 -5 -5 -38 -10 -251 -37 -103 -12 -130 -29 -50 -30 l47 0 -47 -15
c-43 -13 -48 -18 -48 -44 0 -27 3 -29 28 -24 62 11 427 64 441 64 17 -1 -39
-22 -301 -115 -127 -45 -168 -64 -168 -76 0 -11 6 -16 18 -13 205 48 634 131
785 154 109 15 201 31 205 34 18 18 -27 17 -196 -7 -103 -15 -272 -45 -377
-68 -251 -53 -251 -53 -244 -45 3 3 109 42 235 85 180 62 257 83 362 100 73
12 141 21 151 21 29 0 73 19 67 29 -3 5 -28 4 -57 -1 -76 -14 -84 -3 -9 13 61
13 65 16 65 42 1 16 -2 30 -5 32 -3 2 -59 -3 -124 -11 -65 -8 -120 -13 -123
-11 -5 6 200 57 226 57 23 0 37 18 24 31 -5 5 -12 7 -14 4z m-379 -101 c-49
-16 -228 -39 -236 -31 -5 5 226 45 261 45 11 0 0 -6 -25 -14z m379 2 c-7 -7
-358 -47 -382 -44 -12 2 57 13 153 24 184 22 236 27 229 20z m-416 -53 c-7 -2
-21 -2 -30 0 -10 3 -4 5 12 5 17 0 24 -2 18 -5z m-53 -39 c-49 -12 -314 -53
-318 -50 -12 13 214 54 293 54 22 0 33 -2 25 -4z m127 -10 c-3 -3 -12 -4 -19
-1 -8 3 -5 6 6 6 11 1 17 -2 13 -5z"/>
<path d="M9190 6299 c-267 -48 -488 -88 -492 -89 -17 -1 -7 -20 10 -20 22 0
961 168 980 175 13 5 8 26 -6 24 -4 -1 -225 -41 -492 -90z"/>
<path d="M9385 6275 c-93 -24 -288 -70 -432 -102 -179 -39 -263 -62 -263 -70
0 -9 8 -12 23 -8 115 26 152 34 155 31 2 -2 -14 -10 -35 -16 -122 -40 -143
-51 -143 -76 0 -13 6 -24 13 -24 7 0 77 22 157 49 80 27 199 59 265 71 66 12
202 37 302 55 187 35 233 35 233 1 0 -8 -20 -32 -45 -54 -44 -38 -48 -40 -157
-52 -62 -6 -257 -32 -433 -56 -175 -24 -323 -44 -327 -44 -4 0 -8 -6 -8 -13 0
-15 -11 -16 484 52 121 17 222 29 224 26 11 -10 -99 -28 -368 -61 -346 -41
-340 -40 -340 -59 0 -10 8 -13 28 -10 49 9 276 35 297 34 43 -2 -36 -17 -179
-35 l-146 -18 0 -37 c0 -21 6 -40 13 -42 10 -4 10 -6 0 -6 -7 -1 -13 -12 -13
-26 l0 -25 -186 0 c-150 0 -200 -4 -262 -19 -43 -11 -191 -36 -329 -57 -194
-29 -253 -41 -253 -52 0 -10 7 -12 23 -9 12 3 45 8 72 11 39 4 35 2 -22 -11
l-73 -15 0 -103 0 -103 58 14 c197 48 373 76 580 94 125 11 232 20 237 19 48
-2 -309 -92 -559 -139 -116 -23 -235 -45 -263 -51 l-53 -10 0 -40 c0 -44 1
-44 80 -29 78 15 72 5 -10 -15 -62 -15 -70 -20 -70 -41 0 -13 4 -24 8 -24 20
0 877 125 1062 155 47 7 205 41 352 74 197 44 311 65 430 76 90 9 169 18 177
21 27 9 0 18 -52 17 -28 -1 -43 1 -32 3 92 24 92 24 90 46 -3 29 33 33 -485
-57 -478 -84 -696 -118 -712 -113 -31 11 333 76 929 168 139 21 257 41 263 45
14 9 13 35 -2 35 -7 0 -109 -16 -227 -35 -118 -19 -217 -33 -219 -31 -4 5 183
49 338 79 l115 22 0 43 c1 38 -2 42 -25 43 l-25 1 25 7 25 7 1 137 2 137 -27
0 c-14 0 -55 -5 -90 -10 -35 -6 -66 -9 -68 -6 -7 7 62 23 130 31 64 7 78 25
18 25 l-38 0 33 36 c43 45 43 69 2 90 -40 21 -59 19 -398 -45 -145 -28 -266
-49 -268 -47 -3 4 4 6 358 99 205 54 266 77 218 84 -7 1 -89 -18 -183 -42z
m-77 -302 c-10 -2 -26 -2 -35 0 -10 3 -2 5 17 5 19 0 27 -2 18 -5z m-78 -43
c-19 -5 -69 -11 -110 -14 l-75 -5 80 13 c44 8 94 14 110 14 29 0 29 0 -5 -8z
m305 -16 c-84 -20 -226 -43 -495 -80 -164 -22 173 45 500 99 84 14 81 2 -5
-19z m-508 -10 c-3 -3 -12 -4 -19 -1 -8 3 -5 6 6 6 11 1 17 -2 13 -5z m618
-33 c-11 -9 -185 -45 -191 -38 -2 2 33 12 78 21 46 10 88 20 93 21 21 7 29 5
20 -4z m-426 -65 c-7 -7 -186 -46 -206 -45 -10 0 25 11 77 24 93 22 138 29
129 21z m-142 -116 c-43 -13 -332 -52 -353 -48 -11 2 62 15 161 30 194 27 238
32 192 18z m-430 -26 c-3 -3 -12 -4 -19 -1 -8 3 -5 6 6 6 11 1 17 -2 13 -5z
m-54 -11 c-7 -2 -19 -2 -25 0 -7 3 -2 5 12 5 14 0 19 -2 13 -5z m757 -4 c-95
-19 -388 -59 -421 -58 -51 2 -17 8 206 39 200 27 306 37 215 19z m-657 -16
c-7 -2 -19 -2 -25 0 -7 3 -2 5 12 5 14 0 19 -2 13 -5z m302 -79 c-75 -20 -493
-86 -529 -83 -6 0 45 16 114 35 84 23 180 41 290 53 218 24 231 24 125 -5z
m568 -11 c-7 -2 -19 -2 -25 0 -7 3 -2 5 12 5 14 0 19 -2 13 -5z m-113 -24
c-85 -21 -233 -43 -252 -37 -13 5 264 56 302 56 14 0 -9 -9 -50 -19z m-273
-45 c-3 -3 -12 -4 -19 -1 -8 3 -5 6 6 6 11 1 17 -2 13 -5z m-304 -51 c-7 -2
-19 -2 -25 0 -7 3 -2 5 12 5 14 0 19 -2 13 -5z m-56 -9 c-3 -3 -12 -4 -19 -1
-8 3 -5 6 6 6 11 1 17 -2 13 -5z m-54 -11 c-7 -2 -21 -2 -30 0 -10 3 -4 5 12
5 17 0 24 -2 18 -5z m142 -9 c-66 -18 -301 -57 -316 -52 -12 4 312 66 346 66
11 0 -2 -6 -30 -14z m-200 1 c-23 -9 -858 -156 -867 -153 -23 8 334 82 567
117 221 34 331 47 300 36z m-490 -31 c-63 -17 -385 -68 -391 -61 -3 3 37 12
88 22 289 52 405 68 303 39z m352 -30 c-3 -3 -12 -4 -19 -1 -8 3 -5 6 6 6 11
1 17 -2 13 -5z"/>
<path d="M5625 5923 c-293 -76 -341 -86 -565 -113 -277 -34 -1766 -210 -1775
-210 -3 0 -5 -7 -5 -15 0 -10 8 -13 28 -10 61 12 1726 205 1735 202 17 -5
-322 -86 -513 -121 -263 -50 -619 -109 -953 -160 -159 -25 -291 -47 -295 -50
-17 -18 26 -16 190 8 639 94 1190 195 1543 285 242 62 839 180 851 169 2 -3
-148 -48 -333 -101 -239 -68 -576 -151 -1147 -282 -445 -102 -822 -185 -838
-185 -16 0 -41 -6 -56 -13 -15 -8 -67 -23 -116 -33 -77 -16 -110 -34 -94 -49
2 -3 83 11 179 30 96 19 185 35 198 35 56 0 -4 -19 -186 -60 -139 -31 -193
-47 -193 -57 0 -9 7 -12 18 -9 9 3 127 30 262 61 173 40 280 59 366 65 156 12
907 136 1233 205 124 26 112 15 -29 -26 -74 -21 -202 -61 -285 -89 -129 -43
-205 -59 -550 -119 -220 -39 -456 -79 -525 -90 -126 -20 -474 -71 -484 -71 -3
0 -6 -9 -6 -20 0 -11 3 -20 7 -20 4 0 100 16 213 36 212 37 943 145 948 139 2
-1 -28 -15 -65 -30 -50 -20 -153 -41 -398 -80 -181 -29 -370 -60 -420 -69 -49
-9 -134 -19 -187 -23 l-98 -6 0 -28 0 -28 73 4 72 4 -70 -12 -70 -12 -3 -49
-3 -48 45 6 c37 6 46 4 46 -8 0 -8 4 -17 9 -20 5 -3 76 6 157 19 147 25 409
44 369 27 -11 -5 -156 -27 -322 -48 -296 -38 -303 -39 -303 -61 0 -20 5 -23
39 -23 40 0 403 37 451 46 19 3 17 1 -9 -12 -29 -13 -112 -30 -238 -50 -31 -5
-42 -17 -25 -27 4 -3 34 -1 67 4 33 5 156 22 272 38 117 17 330 53 473 81 175
34 280 50 318 48 l57 -3 -65 -17 c-126 -33 -871 -143 -1130 -168 -212 -20
-208 -19 -207 -46 0 -13 4 -24 9 -24 5 0 109 16 231 35 201 31 376 52 337 40
-15 -5 -554 -85 -571 -85 -5 0 -9 -6 -9 -13 0 -11 29 -10 153 9 83 13 161 23
172 23 19 -1 -176 -38 -277 -53 -34 -5 -48 -12 -48 -23 0 -12 7 -14 33 -9 112
21 542 86 550 83 12 -4 -272 -88 -448 -132 -108 -27 -131 -36 -133 -53 -3 -18
1 -19 45 -11 1037 168 1652 258 1868 273 70 5 70 5 -20 -10 -49 -8 -405 -65
-790 -125 -385 -61 -790 -125 -900 -142 l-200 -32 -3 -37 -3 -36 73 19 c106
27 658 116 1643 264 204 31 504 76 669 101 164 25 300 43 302 41 2 -2 -123
-48 -278 -102 -240 -83 -305 -101 -428 -121 -1052 -169 -1848 -284 -1970 -284
-6 0 -10 -9 -10 -20 0 -18 7 -20 83 -20 153 0 538 33 1066 91 150 16 275 28
277 26 2 -2 -80 -27 -183 -56 -198 -56 -208 -58 -853 -136 -162 -19 -316 -38
-342 -41 -48 -6 -66 -28 -30 -37 16 -4 16 -5 0 -6 -10 0 -18 -6 -18 -12 0 -8
15 -10 48 -6 78 10 635 86 664 92 20 3 28 0 33 -15 4 -12 15 -20 28 -20 15 0
18 -3 10 -11 -23 -23 -343 -68 -565 -81 -175 -9 -218 -14 -218 -26 0 -11 11
-13 53 -8 35 4 46 3 32 -3 -11 -5 -35 -10 -52 -10 -30 -1 -33 -4 -33 -31 0
-26 4 -30 26 -30 14 0 23 -4 19 -10 -3 -5 -15 -10 -26 -10 -13 0 -19 -7 -19
-21 0 -20 3 -21 95 -14 52 4 95 5 95 1 0 -14 -122 -66 -155 -66 -19 0 -35 -4
-35 -10 0 -5 8 -10 18 -10 16 -1 16 -1 -1 -11 -13 -8 -17 -21 -15 -50 1 -22 4
-42 7 -43 4 -2 53 5 111 15 148 25 149 24 21 -26 -120 -47 -128 -51 -117 -62
4 -4 28 1 54 11 287 109 338 125 502 149 135 21 218 26 454 31 159 3 287 4
285 2 -2 -2 -110 -36 -239 -75 -255 -78 -303 -87 -757 -142 -260 -32 -299 -42
-264 -64 6 -3 121 11 257 30 136 19 249 34 251 31 6 -5 -142 -31 -334 -57
-125 -17 -160 -25 -156 -35 3 -8 11 -14 19 -14 8 0 11 -6 8 -15 -8 -20 -15
-20 160 21 145 34 380 75 421 73 11 0 -101 -25 -250 -55 -333 -66 -320 -63
-308 -75 7 -7 78 3 214 30 645 128 849 159 1424 221 259 28 488 52 510 55 38
4 38 4 10 -6 -16 -5 -250 -34 -520 -65 -571 -64 -526 -57 -950 -139 -181 -35
-395 -76 -475 -90 -189 -34 -186 -33 -168 -52 13 -13 54 -6 339 51 401 81 790
138 923 135 51 -1 -570 -132 -894 -189 -129 -22 -248 -43 -264 -47 l-29 -5 24
-19 c13 -10 58 -29 99 -43 l75 -25 1458 0 1457 0 0 90 0 91 -33 -6 c-18 -3
-188 -26 -377 -51 -315 -41 -593 -66 -580 -52 3 3 104 17 225 32 786 94 780
93 762 111 -3 4 -176 -14 -384 -40 -428 -52 -517 -61 -463 -46 38 10 824 160
840 160 6 0 10 7 10 15 0 11 -7 14 -22 10 -102 -22 -923 -175 -930 -173 -6 2
207 55 471 118 l481 115 0 27 c0 21 -4 26 -17 22 -17 -5 -17 -5 0 6 23 15 22
50 -1 50 -10 0 -65 -7 -123 -15 -250 -34 -760 -76 -711 -58 7 3 199 30 427 62
228 31 417 60 421 64 19 19 -25 16 -268 -18 -715 -99 -763 -105 -644 -80 37 8
222 35 410 60 187 25 378 51 424 57 61 8 82 15 82 25 0 9 -6 13 -13 10 -16 -6
-156 -19 -142 -13 6 3 43 10 83 16 59 10 72 15 72 30 0 10 -6 21 -12 23 -10 4
-10 6 0 6 8 1 12 17 12 46 0 37 -3 45 -18 45 -22 0 -466 -60 -705 -95 -93 -14
-203 -25 -245 -24 -73 1 -64 3 148 40 124 21 357 58 518 82 161 24 295 47 299
51 3 3 3 9 0 12 -8 8 -331 -39 -837 -123 -333 -55 -424 -67 -580 -73 -220 -10
-395 -12 -388 -5 3 3 81 28 173 55 121 36 211 56 324 71 154 20 230 34 466 83
73 15 254 37 460 56 187 17 350 33 363 36 14 3 22 12 22 24 0 16 -5 19 -27 15
-56 -10 -467 -55 -470 -51 -5 4 84 17 320 47 160 21 177 25 177 42 0 18 -5 19
-67 13 -70 -6 -63 1 25 24 23 6 42 17 42 24 0 10 -38 3 -147 -25 -138 -36
-334 -61 -453 -58 -79 2 118 49 333 79 122 17 232 33 245 36 21 4 22 9 22 94
0 52 -4 90 -10 90 -5 0 -57 -7 -115 -16 -156 -23 -161 -12 -7 15 132 24 132
24 132 52 0 21 -4 26 -17 23 -42 -9 -316 -44 -320 -41 -2 2 27 18 64 35 46 20
98 34 163 43 52 6 99 15 104 20 19 17 -4 21 -61 11 -32 -5 -60 -8 -62 -6 -2 2
26 17 63 33 38 18 66 36 66 45 0 11 -32 0 -117 -41 l-118 -55 -325 -48 c-368
-55 -904 -123 -927 -118 -30 6 971 219 1227 261 232 39 255 45 258 63 3 19
-19 17 -505 -63 -279 -46 -516 -82 -527 -81 -10 2 103 45 252 96 l270 94 256
16 c207 13 256 19 256 30 0 12 -15 13 -85 7 -47 -4 -85 -5 -85 -2 0 3 38 10
85 17 79 11 85 14 85 36 0 21 -5 23 -57 26 l-58 3 58 14 c45 11 57 18 57 34 0
14 -5 17 -17 12 -63 -24 -200 -58 -268 -65 -102 -12 -742 -11 -700 1 17 5 136
20 265 34 246 27 619 71 683 81 22 3 37 11 37 20 0 18 2 18 -179 -7 -206 -27
-222 -20 -31 14 85 16 167 31 183 33 20 4 27 11 27 29 0 17 -5 22 -17 19 -48
-10 -457 -73 -460 -70 -9 8 203 56 292 66 156 16 185 21 185 34 0 7 -16 11
-42 9 l-43 -2 43 11 c37 10 42 14 42 39 0 18 -4 27 -12 24 -22 -7 -700 -96
-704 -92 -2 2 152 34 343 71 192 37 354 69 361 71 7 3 12 22 12 48 l0 44 -117
-23 c-65 -14 -122 -23 -127 -21 -13 4 195 57 224 57 17 0 20 6 20 41 0 41 0
41 -32 35 -51 -9 -300 -27 -305 -22 -7 7 102 37 222 60 110 22 110 22 113 53
l3 30 -138 -24 c-76 -13 -147 -22 -158 -21 -11 2 46 14 127 27 145 24 179 34
166 46 -4 4 -373 -56 -820 -133 -843 -146 -1027 -176 -1056 -170 -9 2 132 29
313 61 182 31 497 86 700 122 204 36 480 83 614 105 133 21 246 41 249 44 19
19 -34 15 -242 -17 -129 -21 -514 -87 -857 -147 -342 -61 -624 -109 -626 -107
-13 13 778 228 1057 287 129 28 262 57 295 64 l60 14 -104 1 c-95 1 -120 -3
-310 -54 -113 -30 -314 -77 -446 -104 -413 -86 -1433 -267 -1457 -259 -6 2
142 39 329 81 186 43 392 93 458 112 170 49 607 136 895 180 274 41 277 42
264 55 -11 11 -451 -53 -623 -90 -51 -12 -96 -18 -99 -15 -3 3 -3 5 0 5 3 0
81 23 174 51 93 27 237 66 319 85 246 57 225 48 225 99 0 29 -4 45 -12 45 -7
0 -62 -9 -122 -21 -59 -11 -110 -18 -113 -16 -2 3 49 18 113 33 112 28 157 46
138 56 -5 2 -153 -33 -329 -79z m688 -370 c-7 -2 -19 -2 -25 0 -7 3 -2 5 12 5
14 0 19 -2 13 -5z m-50 -10 c-7 -2 -21 -2 -30 0 -10 3 -4 5 12 5 17 0 24 -2
18 -5z m-66 -9 c-3 -3 -12 -4 -19 -1 -8 3 -5 6 6 6 11 1 17 -2 13 -5z m208 0
c-41 -16 -1236 -214 -1293 -214 -50 0 46 18 518 95 289 48 570 95 625 105 91
16 175 24 150 14z m-100 -130 c-28 -11 -748 -163 -795 -168 -92 -9 403 114
580 144 147 25 243 36 215 24z m15 -40 c-145 -39 -376 -82 -386 -72 -5 6 496
116 526 116 14 0 -49 -20 -140 -44z m-475 11 c-57 -16 -385 -68 -391 -62 -2 2
76 18 174 36 97 18 184 34 192 36 8 1 29 3 45 3 23 0 19 -3 -20 -13z m-876
-49 c-3 -3 -351 -74 -499 -102 -14 -3 2 7 35 22 42 18 114 35 240 54 177 28
232 34 224 26z m118 -12 c-3 -3 -12 -4 -19 -1 -8 3 -5 6 6 6 11 1 17 -2 13 -5z
m-257 -79 c-91 -19 -257 -50 -370 -70 -113 -19 -216 -38 -230 -41 -18 -4 -22
-2 -15 5 19 19 162 50 440 95 320 52 406 57 175 11z m475 19 c-5 -2 -118 -26
-251 -53 -229 -48 -607 -106 -642 -99 -24 5 285 63 598 113 245 40 321 50 295
39z m570 -70 c-203 -40 -374 -74 -379 -74 -68 -1 307 87 504 118 307 49 265
34 -125 -44z m212 -39 c-89 -18 -654 -88 -669 -83 -6 2 141 25 328 50 342 46
471 58 341 33z m226 8 c-7 -2 -19 -2 -25 0 -7 3 -2 5 12 5 14 0 19 -2 13 -5z
m-2223 -43 c-8 -5 -28 -9 -45 -9 l-30 1 30 8 c17 4 37 8 45 9 13 1 13 0 0 -9z
m1230 -16 c-76 -24 -973 -147 -964 -133 8 13 218 58 319 69 89 9 206 24 570
74 143 19 160 17 75 -10z m580 -40 c-152 -39 -883 -137 -980 -132 l-55 3 90
29 c75 24 166 37 550 81 253 29 476 53 495 53 20 0 -22 -15 -100 -34z m-1542
-60 c-3 -3 -50 -19 -104 -35 -89 -26 -109 -29 -238 -28 l-141 1 95 20 c123 25
401 55 388 42z m467 -53 c-36 -14 -101 -23 -90 -13 11 11 45 19 85 20 22 1 23
0 5 -7z m-1108 -7 c-3 -3 -12 -4 -19 -1 -8 3 -5 6 6 6 11 1 17 -2 13 -5z
m-197 -33 c-25 -15 -130 -25 -130 -13 0 12 33 18 100 20 30 1 40 -2 30 -7z
m879 -5 c-8 -8 -421 -84 -489 -90 l-65 -6 62 20 c72 24 507 90 492 76z m626
-5 c-12 -10 -415 -65 -441 -59 -29 6 262 51 436 67 8 0 10 -2 5 -8z m1193 -6
c-16 -16 -459 -89 -603 -100 -509 -36 -759 -67 -1605 -200 -223 -35 -425 -66
-450 -69 l-45 -6 35 12 c19 6 152 46 295 89 250 74 273 79 580 124 262 38 603
93 895 145 49 8 907 13 898 5z m-2290 -162 c-10 -2 -26 -2 -35 0 -10 3 -2 5
17 5 19 0 27 -2 18 -5z m15 -30 c-7 -2 -19 -2 -25 0 -7 3 -2 5 12 5 14 0 19
-2 13 -5z m-66 -9 c-3 -3 -12 -4 -19 -1 -8 3 -5 6 6 6 11 1 17 -2 13 -5z m-64
-11 c-7 -2 -21 -2 -30 0 -10 3 -4 5 12 5 17 0 24 -2 18 -5z m-66 -9 c-3 -3
-12 -4 -19 -1 -8 3 -5 6 6 6 11 1 17 -2 13 -5z m-64 -11 c-7 -2 -21 -2 -30 0
-10 3 -4 5 12 5 17 0 24 -2 18 -5z m2102 -59 c-23 -9 -559 -123 -562 -120 -12
12 213 72 360 96 160 26 226 34 202 24z m487 -75 c-59 -35 41 -18 -1063 -174
-294 -41 -542 -75 -550 -74 -7 0 42 20 111 45 103 37 150 48 280 64 85 10 286
35 445 55 160 19 405 53 545 74 140 21 262 39 270 40 8 0 -9 -13 -38 -30z
m-1192 -65 c-85 -30 -175 -59 -200 -64 -49 -11 -470 -58 -785 -89 -385 -38
-446 -43 -450 -39 -3 2 280 48 628 103 347 54 693 108 767 120 204 34 210 29
40 -31z m1065 -9 c-42 -16 -627 -119 -739 -130 -400 -40 -578 -57 -581 -53 -2
2 233 37 523 77 290 41 577 82 637 91 102 16 183 24 160 15z m290 -110 c-34
-14 -1079 -199 -1210 -215 -307 -38 -401 -51 -505 -70 -157 -29 -401 -62 -408
-56 -3 3 0 6 7 6 7 0 285 50 619 111 624 114 1584 257 1497 224z m-666 -39
c-6 -7 -341 -57 -346 -53 -2 3 51 14 119 26 68 12 130 24 138 25 23 5 94 7 89
2z m-849 -82 c-8 -2 -116 -20 -240 -40 -222 -35 -422 -56 -414 -42 13 21 132
43 338 63 207 20 356 29 316 19z m985 -44 c-11 -5 -36 -8 -55 -8 l-35 0 30 8
c17 4 41 8 55 8 23 1 23 0 5 -8z m-1695 -27 c-37 -17 -161 -31 -147 -17 10 10
113 32 152 32 l30 0 -35 -15z m1955 1 c-15 -6 -439 -63 -443 -59 -9 9 154 49
223 55 92 8 235 10 220 4z m-1248 -10 c-3 -3 -12 -4 -19 -1 -8 3 -5 6 6 6 11
1 17 -2 13 -5z m-292 -55 c-143 -27 -267 -48 -275 -48 -22 2 2 7 245 55 121
23 236 42 255 42 19 0 -82 -22 -225 -49z m1025 15 c-75 -25 -143 -38 -240 -48
-179 -19 -274 -27 -268 -21 8 8 392 87 463 94 149 17 159 12 45 -25z m-2287
-21 c-7 -2 -19 -2 -25 0 -7 3 -2 5 12 5 14 0 19 -2 13 -5z m1824 -9 c-3 -3
-12 -4 -19 -1 -8 3 -5 6 6 6 11 1 17 -2 13 -5z m-137 -29 c-58 -13 -136 -26
-175 -29 -68 -5 -69 -5 -20 5 125 26 243 47 270 47 17 0 -17 -10 -75 -23z
m-725 -10 c-38 -14 -539 -96 -580 -95 -31 1 35 21 145 45 135 29 487 69 435
50z m1135 -41 c-81 -14 -116 -17 -109 -9 8 7 109 23 149 23 20 0 3 -6 -40 -14z
m-1695 -3 c-20 -17 -280 -61 -360 -60 -74 1 -65 4 140 34 121 18 222 33 225
34 2 0 0 -3 -5 -8z m864 -32 c-76 -15 -360 -46 -352 -39 28 23 196 47 343 47
l55 1 -46 -9z m546 1 c-11 -5 -33 -8 -50 -8 -29 1 -29 1 5 8 49 10 69 10 45 0z
m-98 -16 c-3 -3 -12 -4 -19 -1 -8 3 -5 6 6 6 11 1 17 -2 13 -5z m-902 -25
c-82 -26 -167 -38 -320 -44 l-130 -5 120 20 c167 28 314 48 355 48 31 0 28 -2
-25 -19z m801 -16 c-3 -4 -61 -24 -129 -46 l-122 -38 -225 -4 c-124 -2 -214
-1 -200 1 14 3 171 24 350 48 179 24 327 44 329 45 2 0 1 -2 -3 -6z m-541 -28
c-17 -7 -395 -65 -413 -64 -25 2 357 67 393 67 17 0 26 -1 20 -3z m1688 -12
c-7 -2 -19 -2 -25 0 -7 3 -2 5 12 5 14 0 19 -2 13 -5z m-2193 -19 c-99 -24
-500 -65 -500 -51 0 4 15 14 33 24 26 15 66 19 207 23 234 8 278 8 260 4z
m2110 -28 c0 -10 -152 -38 -307 -56 -263 -31 -252 -22 22 20 272 40 285 42
285 36z m-542 -11 c-7 -8 -454 -65 -493 -64 -32 1 203 43 320 58 83 10 181 13
173 6z m-379 -9 c-5 -5 -669 -114 -739 -121 -70 -7 -67 -5 130 56 131 41 186
53 265 59 115 8 350 12 344 6z m1348 -12 c-3 -3 -12 -4 -19 -1 -8 3 -5 6 6 6
11 1 17 -2 13 -5z m-3048 -18 c-11 -9 -69 -15 -64 -6 3 6 20 10 37 10 17 0 29
-2 27 -4z m2074 -33 c-7 -2 -21 -2 -30 0 -10 3 -4 5 12 5 17 0 24 -2 18 -5z
m-1060 -90 c-7 -2 -21 -2 -30 0 -10 3 -4 5 12 5 17 0 24 -2 18 -5z m2052 -9
c-60 -22 -1068 -161 -1098 -151 -7 2 14 13 46 25 38 15 149 34 335 57 402 52
654 81 722 83 l35 1 -40 -15z m-2117 -1 c-10 -2 -26 -2 -35 0 -10 3 -2 5 17 5
19 0 27 -2 18 -5z m-93 -14 c-22 -4 -51 -8 -65 -7 -35 1 34 15 75 16 25 0 23
-2 -10 -9z m756 -14 c-35 -7 -116 -15 -180 -18 l-116 -6 140 18 c171 22 254
25 156 6z m-858 -2 c-7 -2 -19 -2 -25 0 -7 3 -2 5 12 5 14 0 19 -2 13 -5z
m1282 -28 c-44 -8 -81 -12 -83 -10 -8 8 75 22 128 23 19 0 -1 -6 -45 -13z
m984 1 c-7 -7 -142 -37 -146 -32 -3 2 24 11 59 19 66 16 94 20 87 13z m-1210
-30 c-8 -8 -231 -38 -237 -32 -3 3 3 6 14 7 10 0 51 7 89 14 69 13 142 19 134
11z m950 -6 c-27 -16 -453 -136 -599 -169 -269 -61 -409 -82 -518 -80 -104 3
-135 11 -84 24 15 4 83 31 152 60 138 59 126 56 780 139 314 40 289 38 269 26z
m-865 -54 c-46 -21 -200 -47 -266 -45 -44 1 85 41 177 54 135 19 149 18 89 -9z
m-1887 -22 c-3 -3 -12 -4 -19 -1 -8 3 -5 6 6 6 11 1 17 -2 13 -5z m1523 -21
c-19 -9 -73 -22 -120 -29 -117 -18 -432 -55 -436 -51 -14 14 460 94 561 95
l30 0 -35 -15z m130 -62 c-180 -78 -271 -94 -415 -74 l-49 6 80 24 c74 22 354
70 419 72 24 0 18 -5 -35 -28z m-800 -15 c0 -8 -229 -46 -398 -66 -284 -35
-248 -18 58 27 276 40 340 47 340 39z m2170 -25 c-39 -23 -144 -41 -231 -40
-111 2 -106 3 71 28 162 23 181 24 160 12z m-1870 -6 c0 -7 -69 -23 -135 -30
-89 -10 -58 7 38 21 45 6 85 12 90 13 4 0 7 -1 7 -4z m1167 -1 c-3 -3 -12 -4
-19 -1 -8 3 -5 6 6 6 11 1 17 -2 13 -5z"/>
<path d="M7660 5744 c0 -14 7 -15 40 -10 105 16 120 14 43 -6 -52 -14 -83 -27
-83 -35 0 -9 8 -11 23 -8 12 3 83 21 157 39 l135 34 -157 1 c-140 1 -158 -1
-158 -15z"/>
<path d="M9151 5335 l-514 -134 -426 -60 c-234 -33 -449 -63 -477 -67 -54 -7
-83 -18 -72 -29 4 -4 152 14 330 39 178 25 330 46 338 45 51 -3 -163 -44 -365
-69 -132 -17 -255 -33 -272 -36 -33 -5 -33 -5 -33 -64 0 -33 2 -60 5 -60 2 0
84 13 182 30 98 16 266 41 373 55 385 50 924 115 944 114 18 0 18 -2 -4 -9
-14 -5 -198 -56 -410 -114 -385 -104 -385 -104 -728 -152 -188 -26 -348 -51
-354 -55 -34 -21 20 -18 219 10 120 18 232 34 248 36 29 5 29 5 5 -5 -19 -9
-450 -90 -474 -90 -3 0 -6 -20 -6 -45 0 -44 1 -45 33 -45 17 0 86 7 152 15
195 23 195 15 0 -14 l-180 -26 -3 -88 -3 -88 33 5 c99 16 190 27 194 23 6 -6
-158 -37 -195 -37 -17 0 -31 -4 -31 -10 0 -20 90 -9 330 40 224 46 574 95 624
88 25 -4 -578 -119 -774 -149 -188 -28 -180 -25 -180 -54 0 -32 -13 -32 315
10 149 19 360 46 470 61 110 14 268 34 350 45 160 21 886 147 894 155 10 10
11 53 1 59 -5 3 -66 1 -134 -6 -68 -6 -130 -9 -137 -7 -8 3 49 15 125 27 77
12 143 24 148 27 4 3 8 16 8 28 0 22 -4 24 -102 31 l-103 8 60 9 c33 4 79 10
101 13 36 5 42 9 42 30 0 31 -2 31 -188 5 -79 -11 -155 -20 -169 -19 -14 1 59
14 162 29 183 27 207 33 194 46 -4 4 -219 -23 -479 -60 -260 -36 -518 -71
-573 -76 -631 -63 -918 -90 -921 -87 -14 13 295 77 686 141 417 68 580 94
1105 174 153 23 180 30 183 45 9 46 4 46 -235 6 -246 -42 -819 -122 -833 -117
-5 2 159 49 365 106 348 96 386 104 531 117 85 8 159 17 165 20 18 12 9 35
-13 36 -23 0 -23 0 -2 9 31 12 25 56 -7 53 -47 -3 -320 -45 -699 -108 -401
-66 -504 -80 -655 -89 l-90 -5 135 24 c285 50 944 155 1130 181 183 26 222 35
208 50 -4 3 -104 -9 -223 -26 -119 -18 -219 -30 -221 -27 -6 6 76 20 286 50
83 12 150 27 150 32 -1 11 -6 11 -100 2 l-65 -7 78 24 c87 28 99 34 92 45 -2
5 -87 -16 -187 -45 -136 -40 -236 -62 -387 -84 -112 -17 -205 -29 -207 -27 -2
2 26 11 63 20 353 87 718 186 721 195 2 7 -5 12 -15 11 -10 -1 -249 -61 -532
-134z m497 -111 c-4 -3 -57 -19 -120 -35 -104 -27 -543 -86 -572 -76 -6 2 106
22 249 45 143 23 298 48 345 56 109 17 104 17 98 10z m-703 -14 c-48 -14 -446
-81 -457 -78 -26 9 386 86 462 86 23 0 22 -1 -5 -8z m-885 -215 c-111 -19
-213 -28 -175 -14 37 12 144 26 205 26 38 0 33 -2 -30 -12z m1238 -192 c-10
-2 -28 -2 -40 0 -13 2 -5 4 17 4 22 1 32 -1 23 -4z m-75 -10 c-7 -2 -21 -2
-30 0 -10 3 -4 5 12 5 17 0 24 -2 18 -5z m256 -47 c-2 -2 -76 -6 -164 -9 -88
-3 -142 -2 -120 3 40 7 292 13 284 6z m-220 -40 c-2 -2 -123 -20 -269 -40
-343 -47 -383 -52 -645 -81 -501 -55 -607 -66 -613 -61 -3 3 -1 6 4 6 6 0 111
18 235 39 363 64 603 95 929 121 204 16 367 23 359 16z m199 -82 c-7 -6 -763
-115 -788 -113 -8 1 59 16 150 34 155 31 316 54 525 74 50 4 96 9 104 10 8 0
12 -2 9 -5z m-13 -39 c-28 -10 -565 -98 -730 -119 -104 -14 -315 -41 -468 -61
-153 -20 -286 -35 -295 -33 -19 4 177 34 933 142 450 65 595 83 560 71z m-778
-41 c-3 -3 -12 -4 -19 -1 -8 3 -5 6 6 6 11 1 17 -2 13 -5z m-744 -181 c-7 -2
-19 -2 -25 0 -7 3 -2 5 12 5 14 0 19 -2 13 -5z"/>
<path d="M9540 4438 c-130 -26 -176 -30 -450 -38 -196 -6 -391 -18 -545 -34
-132 -14 -370 -39 -530 -56 -159 -17 -305 -33 -322 -36 -38 -6 -43 -21 -10
-27 l22 -4 -22 -2 c-13 0 -23 -6 -23 -12 0 -10 171 -7 320 7 114 10 21 -14
-140 -36 -153 -21 -192 -31 -178 -45 3 -3 145 15 316 40 199 29 335 45 379 43
60 -3 30 -9 -257 -57 -179 -29 -351 -58 -382 -63 -56 -10 -58 -11 -58 -40 0
-29 2 -30 33 -24 59 11 299 37 304 33 2 -3 -61 -14 -139 -26 -223 -34 -198
-22 -198 -97 l0 -64 43 5 c113 14 648 65 664 64 42 -2 -420 -91 -624 -120
l-83 -11 0 -44 c0 -53 -16 -51 217 -28 219 20 243 14 54 -14 -84 -13 -180 -28
-212 -34 l-59 -10 0 -44 c0 -42 1 -43 28 -39 15 3 97 14 182 25 85 11 171 23
190 26 19 3 33 3 30 1 -4 -5 -411 -97 -426 -97 -10 0 -3 -49 9 -53 10 -4 10
-6 0 -6 -7 -1 -13 -6 -13 -12 0 -8 14 -10 40 -6 49 6 44 -8 -5 -17 -31 -6 -35
-11 -35 -36 0 -35 -10 -34 131 -14 61 8 113 13 116 11 5 -5 -207 -57 -232 -57
-8 0 -15 -7 -15 -16 0 -12 7 -15 28 -11 15 2 180 30 367 61 187 30 351 58 365
61 20 4 22 3 8 -5 -39 -24 -270 -81 -483 -119 -126 -23 -242 -44 -257 -47 -26
-5 -28 -9 -28 -55 l0 -49 663 4 c364 3 684 8 711 12 39 5 47 4 41 -6 -13 -20
193 -4 264 20 50 18 191 104 191 117 0 3 -17 2 -37 -2 -243 -46 -441 -75 -515
-75 -98 0 -124 14 -45 24 118 16 653 118 661 126 5 5 7 12 5 15 -3 2 -88 -11
-190 -30 -423 -81 -706 -125 -810 -125 -56 0 -100 2 -97 5 3 3 162 32 354 65
192 33 444 76 559 96 191 33 238 45 224 58 -3 3 -146 -19 -319 -49 -173 -29
-436 -75 -585 -100 -148 -25 -308 -53 -354 -61 -53 -9 -147 -14 -255 -13
l-171 1 115 29 c63 16 187 49 276 74 215 60 707 157 1172 232 l172 27 0 28 c0
31 -1 32 -85 18 -140 -22 -428 -60 -433 -56 -13 14 216 69 354 86 86 11 160
22 165 26 22 13 0 29 -37 27 l-39 -2 39 13 c38 12 61 36 36 36 -7 0 -72 -18
-146 -40 -162 -47 -442 -85 -552 -73 l-67 7 90 22 c212 55 399 94 527 113 75
10 141 22 146 25 5 3 9 23 10 46 2 48 10 47 -183 25 -193 -22 -191 -16 5 15
96 16 176 29 178 29 11 3 -2 21 -15 21 -15 0 -14 2 3 14 10 8 16 17 12 21 -4
4 -125 -9 -270 -29 -145 -20 -393 -55 -553 -77 -159 -22 -481 -67 -714 -100
-233 -33 -428 -58 -433 -57 -15 5 744 135 977 168 116 16 372 52 570 80 197
27 371 50 387 50 26 0 46 16 34 27 -3 4 -59 1 -124 -5 -64 -6 -213 -21 -330
-33 -118 -11 -216 -19 -218 -16 -4 3 504 105 625 125 25 4 46 13 49 20 5 16
-4 16 -184 -13 -86 -14 -162 -24 -168 -22 -16 6 21 14 174 37 191 29 182 26
178 58 l-3 27 -120 -2 -120 -2 90 15 c126 20 149 27 153 47 3 13 -4 17 -25 17
-16 0 -34 5 -40 11 -6 6 -38 14 -70 18 l-58 7 90 17 c84 16 117 29 98 39 -4 2
-73 -9 -153 -24z m-372 -63 c-13 -14 -181 -37 -396 -55 -131 -11 -306 -29
-390 -40 -113 -15 -206 -20 -350 -19 l-197 2 155 18 c85 9 202 22 260 28 58 6
193 20 300 32 252 27 632 47 618 34z m337 -4 c-20 -8 -279 -23 -259 -15 5 2
30 8 55 13 56 11 231 13 204 2z m-265 -50 c-31 -18 -211 -41 -306 -40 l-99 1
75 14 c41 8 129 18 195 22 66 5 127 10 135 10 13 1 13 0 0 -7z m-575 -41 c-11
-5 -38 -8 -60 -8 l-40 1 45 7 c64 10 78 10 55 0z m-847 -27 c-10 -2 -28 -2
-40 0 -13 2 -5 4 17 4 22 1 32 -1 23 -4z m1402 -3 c-14 -4 -43 -8 -65 -8 l-40
1 45 7 c65 10 92 10 60 0z m-411 -4 c-7 -7 -560 -77 -578 -74 -32 7 415 76
498 77 46 0 82 -1 80 -3z m584 -23 c-7 -2 -21 -2 -30 0 -10 3 -4 5 12 5 17 0
24 -2 18 -5z m-85 -10 c-10 -2 -26 -2 -35 0 -10 3 -2 5 17 5 19 0 27 -2 18 -5z
m-81 -9 c-3 -3 -12 -4 -19 -1 -8 3 -5 6 6 6 11 1 17 -2 13 -5z m-64 -61 c-7
-2 -19 -2 -25 0 -7 3 -2 5 12 5 14 0 19 -2 13 -5z m-604 -48 c-11 -11 -737
-110 -746 -102 -9 10 180 41 432 72 284 34 321 38 314 30z m281 -36 c-75 -19
-246 -43 -370 -53 -98 -7 -48 3 190 39 247 37 285 40 180 14z m137 -35 c-3 -3
-12 -4 -19 -1 -8 3 -5 6 6 6 11 1 17 -2 13 -5z m-172 -24 c-125 -19 -165 -20
-73 -1 75 16 97 18 148 19 25 0 -9 -8 -75 -18z m495 -31 c-114 -28 -513 -87
-815 -119 -454 -50 -415 -37 110 35 149 20 371 52 495 70 256 37 319 41 210
14z m-115 -84 c-117 -21 -174 -27 -145 -14 31 13 121 27 175 27 30 0 23 -3
-30 -13z m282 -1 c-3 -3 -12 -4 -19 -1 -8 3 -5 6 6 6 11 1 17 -2 13 -5z m-44
-11 c-7 -2 -19 -2 -25 0 -7 3 -2 5 12 5 14 0 19 -2 13 -5z m-536 -18 c-55 -21
-382 -93 -495 -110 -92 -14 -520 -41 -527 -33 -7 7 981 156 1040 156 11 0 3
-6 -18 -13z m226 -15 c-25 -10 -164 -31 -196 -29 -23 2 162 36 198 37 19 1 19
0 -2 -8z m-235 -37 c-10 -2 -26 -2 -35 0 -10 3 -2 5 17 5 19 0 27 -2 18 -5z
m-755 -20 c-7 -2 -19 -2 -25 0 -7 3 -2 5 12 5 14 0 19 -2 13 -5z m896 -7 c-5
-5 -216 -56 -231 -56 -29 0 10 15 94 36 85 21 148 30 137 20z m-289 -36 c-14
-4 -52 -8 -85 -7 l-60 0 50 7 c28 4 66 7 85 7 31 1 32 0 10 -7z m-370 -44 c0
-2 -59 -23 -131 -46 -100 -31 -169 -46 -291 -61 -89 -11 -162 -18 -164 -16 -5
5 533 125 564 126 12 1 22 -1 22 -3z m200 0 c0 -6 -222 -64 -275 -71 -72 -10
-52 1 71 40 91 28 204 46 204 31z m110 -6 c-8 -5 -22 -9 -30 -9 -10 0 -8 3 5
9 27 12 43 12 25 0z m175 0 c-11 -5 -33 -8 -50 -8 -29 0 -29 0 -5 8 14 4 36 8
50 8 23 1 23 0 5 -8z m85 -55 c-108 -30 -494 -92 -522 -83 -25 9 248 72 402
93 232 32 258 30 120 -10z m413 -12 c-7 -2 -21 -2 -30 0 -10 3 -4 5 12 5 17 0
24 -2 18 -5z m-58 -8 c-26 -10 -467 -86 -471 -82 -3 3 19 10 47 17 123 30 475
83 424 65z m-865 -24 c-22 -13 -225 -68 -294 -80 -166 -30 -62 6 189 64 110
26 127 29 105 16z m-533 -37 c-3 -3 -12 -4 -19 -1 -8 3 -5 6 6 6 11 1 17 -2
13 -5z m-64 -11 c-7 -2 -21 -2 -30 0 -10 3 -4 5 12 5 17 0 24 -2 18 -5z m-70
-10 c-13 -2 -33 -2 -45 0 -13 2 -3 4 22 4 25 0 35 -2 23 -4z m246 3 c-6 -6
-268 -76 -282 -75 -25 2 232 77 267 78 11 1 17 -1 15 -3z m616 -36 c-27 -10
-57 -18 -65 -18 -8 0 8 8 35 18 28 10 57 18 65 18 8 0 -7 -8 -35 -18z m-300
-6 c-19 -7 -259 -44 -263 -40 -8 8 187 43 248 44 14 0 21 -1 15 -4z"/>
</g>
</svg>
